<mxfile host="app.diagrams.net" agent="Mozilla/5.0 (X11; Linux x86_64) AppleWebKit/537.36 (KHTML, like Gecko) Chrome/127.0.0.0 Safari/537.36" version="24.7.17" pages="2">
  <diagram name="Page-1" id="9Z6Ug92sRasz9H5mqkeN">
    <mxGraphModel dx="1040" dy="1690" grid="1" gridSize="10" guides="1" tooltips="1" connect="1" arrows="1" fold="1" page="1" pageScale="1" pageWidth="583" pageHeight="413" math="0" shadow="0">
      <root>
        <mxCell id="0" />
        <mxCell id="1" parent="0" />
        <mxCell id="AUDEsrTG1l-LsDCRXI6h-2" value="" style="shape=image;imageAspect=0;aspect=fixed;verticalLabelPosition=bottom;verticalAlign=top;image=data:image/png,iVBORw0KGgoAAAANSUhEUgAAAz0AAAHPCAIAAAD2zyMZAAAACXBIWXMAAA7EAAAOxAGVKw4bAAAgAElEQVR4nOzdZ2AUxdsA8Nm93nMpd5feeychQBJ6KBKQ3gSpAgKCgCAqKuirKEUUEBEEBQRBmtTQO4SQhIT0Snrv5frd7r4fAiGBJCQQ/hF5ft+S272ZLbf77OzMMxhFUQgAAAAAAPzr4V1dAQAAAAAA0C4QtwEAAAAAvB4gbgMAAAAAeD1A3AYAAAAA8HqAuA0AAAAA4PUAcRsAAAAAwOsB4jYAAAAAgNcDxG0AAAAAAK8HiNsAAAAAAF4PELcBAAAAALweIG4DAAAAAHg9QNwGAAAAAPB6oHd1Bf5d1KWRt+6VqF7FVwvNnD3c7I25sMcBAAAA8GIwiqK6ug7/IsUXx/cbcjT9VXy11/gvf1q3vL+t4FV8OQAAAADeAND60wzPun+IX1j6fSVCCCEGwyVo5EB/JzH7xV4nk7rCjNvnr98pLu/MOgIAAADgDQVxWzM8mzGzP43P+HT3pQw9QghpDaUh05cOczNmvkjkRuiKM6/Zbfri+52Rik6uKAAAAADePDAuoRkaU+I+cMHSuQO8pRhCOl3W5UMbft+fXK4hXuRtMo0hsw+ePHn6AG9up9cUAAAAAG8ciNuaw3Cm0Dlo3MJZoc5ShBCqq7y3Z8PO80kq3Yt9HZ0jc+45uKcXs1NrCQAAAIA3EcRtT8NwpsCy79j3Zo/uY8hCCBHVRfu+mfVbZPULfh1HbO7h3c0SWtwAAAAA8JIgbnsWhtGEZgFTFiyc0NuJiSGEFJkJn3/3RWSljnyBt6UYk2tkJbM07fRqAgAAAOANA3FbizCMZur+1pyls/u5m9AxhEjluX2zv96aVa/rcOSG4WxDCydfPxepIYeOvYrKAgAAAODNAPnb2kBoCk/+8tHq7/9JLtOSiCN2ee+nHV+MDzLh0Lq6ZgAAAAB4A9HWrFnT1XX418LpQgd3V11+THRcoZLUaauycor4bgHeli+WFgQAAAAA4GVA3NY2GsvYzlFckhyVkF2tp5S1lQVKZO/uaWskoME7TwAAAAD8T0Hc9jwY39jB2Vobdflyfh3Sq6sL8+oYZj4+bhIeAyI3AAAAAPwPQdzWDjSxqYMFo/D67cR6HaWuLysuwqWuHg6WQha8Lu0ElLquJD72+Nm7VZiBqVQIgzcAAM8g9XUp1zdtT+EIBCIpnwmXCfDGgritPTAa19LOiVGbFB6Vp0XqurLMaoWlR4CrmZgBkdvLIHWq4rRrW7ZuPnwiWyDt7u1pacyHF9AAgGdQFKEsunbzwslThyPSBdb25kZCuPyCNxLEbe2CIRrX0MbKpCY7/P7DWpJSluZWI5Gnj4+piIVDnPGC9Ors8N8WLd2Wre8z7f1ZYwa5mRsxabA7AULamvif5+/PNXWzN2dDfwSAEEIIowskHl52Ml7lpeMHLt8jLFydzU2YMLgfvHG6Mg8IVXPnr2+/2fR3UnmrixhbrNj0z+xgKZf+P6xXKyhCW5tweefST/7veoIcITpHOObrw5vfD5FCC9GLUSUfGDXuixqrD777YU6wM59Bx5ruR4pQleZF7tr1+/Fj1yqUyNRi3NTJU8bP85EyW9/dlKog/K8PP/gqqrKVBTD3QfNXrfkw2JLTaq3UVSnnom7sWb3hQZGOQsjA2Ht4v7mj3g1w95by2n66pyhtZcLekyeOH9yVlI4Q4rt7j58yc9awoRZibgdOkbqSuL2/L8lnbPlkhadhSwuoSu4fPHc/I+Pa0f13NAghxPf0mTh27MTQsfYSfnuDHFJdevvC3o17zZfvGhtkyG7h5keWXT98OrIs8eDGYw2708J66OjQ6aNn+tp05PcoL0v+e//KVO3KDz/sZc55Zj8Q6T9Onb4zvFDR/DJEkZra8oDPzvyxKMSY165N0uSmXt66/Jb9hx9OHWAqeN7NXFNbEJsccSzs0PXTad0m7P7iQ39zXqtPDJReXZZ578idmPjbF69cSdIhhJBB774LR08MDR1u8dSppK5MPnslNj3/5r7N5xQIIcS2cXhrwtjpoePcrKXsts4gitLXZpw+c+Z+XvrF/WElcoQQMrWYMHX4yBHLAq3YtGbrklXR5y9HVKcd/mxXDkUhhAwlfm8PXThumr+Lk8FzZtUjidrciH3XY2JvHLt6NYtECCHHQUPHjJo4bmB/CQfHntkPyvjwy3v2rTkaVoEwMyevCR8uGRkUZG/IbrsYhNR5Z46cvpcVd3L3+RqEEEL2TpPGjZgwcra3Gb/VpjJKp8q49+e2sAj/kJ/eGSB86khSFKnXVMVc/OOb/ztEeq745uvR3hbQXQW8aaiuQ5KEtuLcL9M8ZEwMG73lXq1C84iqvujcrgU+1tzAcYcSKrVkF1ayCZIkdfK8s5tm24saLiaYjf2nJ1IV2q6u2OuI0GR/P8HG0PH9A7flerL5ESZJQlOfcn5d3+5eo+ceuZ9Vp6jNOf7rQnepMGjI4cR6orXzgdTVpp76xkdE53BFBuLmDIRcFl3mOH7zPwWqltcnCV1t/LVtoz0cuvmuPHC5VK7RyKuLbp3eOCLE2dwi9ItfHhTVPV3TJ5ujVyVc+66npaz7wM1n7xTLNRp5Reahn2d42loPnXA8oUZLPGd/kAShk1dnXfz7m75ulgwcjV56v7yFxSr2f+FhzqNzjQM/XhOeVaFR1RffO//ziB6OHIbJkImnk+T6tgsiSUKrrkmLPf7heD9DLi6zXXe5XKV/ZrHsW9/3tTVisY3HzDwUk6HSaOQFGVfXzOlvKmR6+a09n1GnIVrbE43l6BQ1eTdP/vCWvx0Tx956/1KOQt/CKvqkNQOt+DhHIH6G5KM/M2rUzymGJHSaivz4PT9Oc3fg41jIlyfya5/dniYraOvLHlzcMeHtob37r/xtT8zDIrlWR5Bk65ujy/1+PIPB5Fk6Tdy4M6GgRqOszTl74At/C0MG237G50lVTzar5ty2kV6mdBbbbuqC80klGrWiMjXiwMzQbnyGYa8h268/lOtaLyfp6BxTBpMvdps478j91FqVpjY15vB7Q5wNWAyn7psjip+c9sWx+94NtGEz+f0Gb7yQoFRrlJWFMds+H2drxHJwXbT3WvEzv6imSrfNEfOYBuZOH2zfn1qq1Kjq8q8cXdvH2YzF6LFgS3pdsxOI1GsKj26c6mQ8bPmW1AqNsjwnYuP8ITbi4Pe/vZVd3VYxaRdWuPDZPEPH95aeSchWaTR1mQknPxzra8RlBATtiqx99kQldVpVVUHED0tDBXSa1G3YL2drWj6SJKlXF57e/K6HRb/Fv8YXK59zLgLwX9OVcRtFUZQu5uSiQFuWidl3V2qb3dtKHvw5tWffORtiihT/qh8lWVt4b9O8ASasR8+B/sOPJtfo/lVVfA2QmsRTS2zYFqOW3a959lOCUGZdmN7X1qHPNxeTNA1nhV6RsGaEs4BlOf3r9LpWbsyEpip+3+eB9hN/PJxT3+RkIkm9PD9q7Yz+wZN3RRe2cqxIXXbEzskBZqami/fHVjXGdoS2Mvzg8p52TBPTBb/fLVW2HBYR+XG/DnHgCxzXXM15soRenfv7Z33M+Z7zf3pY0/opQhJ6ZV3xg4hjn84JdbYx4rIYGGo1btv3mYuEK3lndXL9k8Jrb+xd2M2cg/ChG27Ut/oUQZJ6jbwgI3b/lo8G9LYTizl0HMls111pMW67uTbIQuw94FiG7sn6pclH5vR2YCDRuJVRJdpWo2eKJNTysuSY018tHutma8zjMDGEnhO3mXx/W9Pa17W+PYS2pvzhnTO/zh4zwFwiZrNoCIV8eaKg9biNVFc9PPz1WHtZ0MLVV7PLnxdLN9Dlrh2D82S9v9yVo2j8J1F5+NtBUgaTZbP4ZGLjz78mbGuom4lwyLTzWbrH+4dUxJ/7fqinCGFBy/akVWha3W9JR2aZ0KV9J53IaHJoc+/92N9ShLNs5m3IVT/+b3HMnncCrFx8N10rVD4um6zNvfnNZH824g+ceSS+tI3nhNKtswR8SciGI5VPThWi+uSmUTYCOjL68GzekwqShDLuzOreVrKhUy/nPvqfNjd6z6y+JibSaT+F5dS1HoemnV9mzzXs9+71kieHgyi4v+NtZwkNGc7cUtL0gOt1qoqy5NOHN77tby0xEdEQkrgO295a3EZRFEXVZl9YNszd1nrFkaQadesnIwD/QV3cwkypaitqlWpC6mghYTRrn+caWvv2nNQnyFTA+le9hcSEZr5j580dF+LYMKIp+sL3G35+UKaCWSc6gFCl/bX9rxJeyLhJboJnP6Z0Ced+OR5J9/Dr7+38KMUxjes2/v0hMrzi4pG/HxS1trdxppFX/5nvjw615j85symkV+XdP33yHqv/oAGuZi2fThRRkXTrxoOMIpvA7h5mvMbRajjD0MVvQLCbQ1VxZFxSpbylic4oovLG4b0PCtU+fYd1s35SMI1l0TtkgLUw+/SOM2ny1nYGRaqr4y79/PWWozUmY9dsWjOiuz231VOeLrULCBr45YIPXflPNlro0T3YydiYRt5NuV+rb21VUlebdXPj9ztP3pXNmv/jyg/6W5u0+utni6y6BQ6btqC3xZMXopihhZOTRCLAajPjc+vaON91yrQbv375wx/ZjGFfbvx6Qn8Pwau4ylCIUhae3vn9+h3hTkGL169b3NvDrO1ytPKCsO2fLtmYPWDu+lUr+tsYt69aGMvK460hY5ZNmWDNbfwnbth70BAZHVGK8JQUBfnovzRDc6+APh/P/aSXWWM/TYxr4+LvY2PLoOKy4kvk2lZ3HNfEpc/wMfMXDLZrcmjNPXr7WvBYRFlcbHb94/8y+TI3v0ET5w5wEbMev3jGeMbmTha2hrg8PyO/Utl6MYhh7tK//5DZbw0yZDwpx8DL31/CYSHtrYwU4skeq006uft0SpnPgGk+Jo9XN3Pq1c+3F1Zx7dKZxIJafWsFcQwdeg4c/u707iZP3nTiEjsvJwMRG1WlxOWpnyxL1RVE7Nu2assh5YgPvlu7bq7Nc170IoSQ0Mo/ZKg7Rxl29UqpgoJZf8CbpGv7jZHaqvzkkqo6hrenjUHz/hsCy97LfuzdVRVrE8PKe/jchZlZ2ZuupFTpdbEHtm30dt8wO9SSz3j+ygAhqiLjdkS0imPRz8+3hR4/pC7/3NmrhMjBy9NO3OSib+nY3Qz/7W7J6XvRHwZattCFCWeKnIeN/2bYU6Uhsibr2N/n5WaTQvqat9Ynh1TXVjysraxGpnzOU4MjOHwDMVfEQFnVJQod0cK6uvqMqCvFdVqWi48tr3mNTG28zFm8yKzz0Unzu/dspfMZRXCEtu/OXxQSKOVT2fXnDt+KSm2lmqLBs/cOnv30f2k0Bh3DMaSj2riBYQjD+W7Bc5aP9DYXo6SLEZeOXk9St7yszGvKlr+ntPAdTIRwpshI0OaZTtLZRuNmbh3W30xA5aN7565di2lr8RdGYHxB9882TuzmJNQVGCQdPX2zjYUpRWzYus++DhP03bxgQU9TXhuLNkeTTvnqzLP7gk5vaHLXUhR6fFj5PUav7TH66SVxGo2B0zCkpyjy6c+asOm74mjfp/+J0RhMOoYhRDY5roaOQ1b9MuSpJSmEIQaG0Rh8EZ9NbyMkFY9ecfKZOlIIwzGEEG4qEjeepERpenR8TjEuGu7qzm484nSekbmTxFScn3D7QU5NHwdDRosdAy27z99/av4zxSCMjRDGEhvxm/x+KUqvcHBf8uPCAGdjFpbPPW6yIbr1DXgEN3D1C7AUX753MqZ4jr0BDf2rnu8BeIW6tr1NXZ2XkVJRqXB3D7QS4BiGEKmrz42OPnctu0bXpTVrG87z6DPlvekjHAVsDBG6srO/bfr18v1/dZX/TVTJUZdy1UrXbi6ylp4bVMXRV27IaWwDiaTpxR1xJFbWIoRUxYkJBZoOFEeVJZz8+6Y2cMAgT5vWJyjDaTQWjUZDOrVOTzaLfnQapVKrIpBMZMKht9ThnVQrFbUESdFp9KdvYUyhWEyj08n76Yn1rdy0MRpP6h0ye1SwlP+Cv0Z9WVFmmaqewerl6SduNaLCmWKn3nNm+JqLX6wYojI/I6OgXEf3DRzsKG5joAVT6DZgwcSBZq+kma0RhuEi61GL5gQ4Cdvz8Kkojdy3/UgO03fagpEe0pevmTYvK76GwvgGQe5ubW8oUVNRUFhTjjO9nL3N+C0HOa1SluXmVWp1NAvfHjYttEw/QSrK89Ozc+TI2SfIzUzUsa76pL46KTaqXK2xcBrTzfXxKU7VZcREZRaXcU2NDJoOBsJ5RtYSiYRRlpmdU6luqQG6NfrSrMTMknqM2av/UKsmT1C4oUPoiPF93E3YHWlHwMUmNiZs3sOIuymV0N4G3iRd2t5G1ZXlFtRVUNwhdq58Fo4hRCorks/s3xklmukdZGvw/C8gdYX3ft56oqS9JToNnjUx2JH/8gOQ6Dyb0NlLHqakfv9nZA0hT7//187dPvbWo91N23rUBQghRFamR2XWa9i9XJ8ei9egvuhhgYJGMzcUizlNdyadJxIbYahSX1RUpUKI29K6zyK0hScPH1NIBo8a5WTQ+rHBmYZW3g5WZrzCpLTcKrWzMePRq1JKVfQwPjm31MJrVpC/TNBSkxmdKxAI6DQkry6X65Fh09CO0Gk0JEkiuVrZkRtcRxCqougb4RmlWrfAKcGerFeTFoGoL087f+Sfe9m8oFHzR/STcVsYdfgS9MXp4Sfv3AivVCKESe2cPAKDutnZGvE6LbmqNj3in/DEOpH9u6GDjF7+oqeTZ106dauCEgb2n+xn39YvntBWpd2PiMmssvGeE+wnbfd4X4QQQqQi8c7FxFK5yGLuqFCz1l8ekuq6/NthJ85FKTwGzBw91EXS+tjYFlbW16dFn/7rWBTd6K05ywY78Bv/X1eaXV5VQwjdhbxmLdBMnkDM57LVypKKCq2ebOfTv76qMO743uPJ1ZZDpi4JDeC8/HWSY2RmKubqlXfTU/WU+b8g5QAA/xtdebJTivy0+IfFZRIHexsxk45RpKY26cbxE/eKghZYPm8s+yP6ktjf169PbG+RQwT9R/Rw5LNeuM5NcIw8pn3yWVbue7uvleuUhYmxFxMy33Iz5T9/zTccpaovJ/WEgamVuMXTr76mTI1wDBezn3qpiYskthiWhrSaFl9XtogsSji+72yB95gx3R3aigIwusgzZOyk1Iyf9x7ftc6SNe/tvj2M6TpFYdr1Pw6dy9H0mrlsfB8ngxYTOeBca//BzofiC5LvxhQqrOwev4MjtdX3rl9IlNe9woZYSvUw+uzJC9GYePSMj0JcRJ2dk4bSq2qL70TcuHLhRPQ9ep8pqya8O9DHlN15k1oI7AKcTGuE+hKOjZObSX1dTkbasX3nDx/ym7R0/oSBFkJmJyT0IzWFERcii+s1Tr4eEu3Ds9fv3L15Jb8YISRz9xr41rggZ0te6y2xz36dPObiH6eu55u5LluwyF/aRjoMSluWfufU6cvVWJ9pc0d0t+V3oBREVmbfOHTgShkRMH35tJ52rUR8mrI74RHXr/9944rCJWTZ+BnDAl3F7XwuJTV1+QWJ58POhJ1IJsTvfvzB5NBQs8ZHKUqrUlRr1Vok5bKa9z3GODwjAVuAIY1O246GLkpbW15wJ+LShTNnk+NNRi1eNHFyH8fWu3C2H51vYGzIYOL5pfkqEj03KwkA/xVdGLeRupqCtLzCUnU5Y+8X0y+L2DgitOV5GTW8QdMsjdoXWmFMx+G/nrOrf/6SDYwd/UTsTrvl0E2dhnz02fKEwpV305l0hgGnpTRY4Cl6RU1liVZL0Jmt3P31OjWJ6DSGTPhU+xjOFRp3sJmHLLv01+4UzaA54z2NnvMkQDMw7zZl8f8ZGv6wafP6JTF7zWQcnNTJq4sqNc5j5308Y6yrhNdyVITTTQZMmhF89c65O99+/x3vk8UD7SREeUHymV1/RBelVuoQhQx4r2R8jb4yJ/LwHwfv53tNXLl4VF9TXuc2g2mLD3w3/Y/riqLiwqJivZ3LBE8fTwcrIZveeaXg0qHzf3AYK7K1kklMWBihqa0u8D66+fv1f/30pcDMfvEgx06Y0UhdlhH/oKJWIxQyrnz8oThkqFv/0MnqioqYu5eO7fv83IWRSzcsHurFZ7Zrs7T5CWG7tv1TQo3+aO37/d04rf/mCUV5+tm/9pyLEYdMX/TO264mHUnjp6pJ+WfXzpPhopD5q+ZOshe2EIrVnPt1wW/HCjKLSgpLqkUmw4d5ezvZGvHZz490KUJZFH7086/3pNVX5OTmKeU9J0319AmwN2q6LkkQGpIkkdCIz252XmFMFp/NaM91lNRWJOzcuPxYuLyoOK+oiOnXa7qXj6etOYeOdcIphNPoDDqOY5XVZXISiV/6+wB4TXRh3KarLc/PKitVOAz5aPX8sU7GbETUF5/57fuj5d52dtx2PTFiGE1kFTTU6lVXtfUKsAxNhJQcscV2IcMmBHpABsjno/Q6jbrNHtoIIaTTa7OrKklk91KhcHly2N/Hc2T+34R0f/4ZhSFt6cPoc2ciWdKBsz+dHuTEJFXVcbcP/HLgwqn9ey2tTCYOsRVzWrzd0CROwzfs2O9x8NihP2e/ddxQxHfy7xYycNi4CQG3E8IicxVCQ+P2ndIdQKkqM87+/vOBM4wBSz6e9Y6XKe+Z7nUviW44cNp695FIKy+Lv3/p4JEb36y8dSv8/z5ZM9DJkNE5zygY08TSy8Ty8Z80loGxbchbw28fufrb9U2/7+jXbX0vGe1l7/E1pdlFdXINkuem8N7bMLavi6FQxMQJbVCgM7P+gy0HNm74ytP96Ag77Ll926nqvPA/1m+5Eucza/uq8f1lradipvSK8rvHf978R6Hr6JWLFvR1MG4jYfTT9MrCa0d/3n4403Pi/y2dH2wnavHA8gNGrLLoqdNp6jPjL+//5+pP38y6cXfpii/Gd3fgPWeIFM4y9hz08QYvDdKVZCeGXTh05fKqq7fufbb76yk9hE+tW1VaqyBICr1Ax3+MLrQfNWdD8CSkrsm7F3n58MF/Vn1w4fbkLau+8TfrtGcMnV73vMsJAP8lXRe3UbVl2ZnF2bigd/BbgT0CLAQ40stNK3x73Ur3sDJ9PWY7IpRJm7/6Mr7SuOfbny6e62vCeT2q3bUwFodrRKNhbb88pBCl1j+1CKmoruhIB2Sy6Mye7fGlnh/8Ntj8+a1d2oy7B75d9X1E0YTvjiwb7iHlMTFEkh4ethIO8el3v29YZWRit3S4p2GL34QzeFZuw5av6jf/QyVBIgyjM5kcLo+ZefWMmtRQzEEe3Tp5uia9suzeyV9+3JfjM3X1h7OC7cQd7PHeHjhLZusjQ4giCR//wGC/A6uXrj28cz7JO7Lhaz8po1Pb9pqUKjCzd7U3FtxOSrmXXU31lL30SEGS0BEUiZDf6GXTh3Q3fNS1isYUSXyGDe9/8lzy3XOXH5SPsJM+53tU1Sn//PrToeu8cV99OvMtR+M25rjTq7Pv7Fq1/qpJn08/XTHcw5Td/qCN0tUl3Ni/efs9g54ffbxskKc5m9Zy6xTdyNzdyBxRFOnp061HQLfNX3z268FVepZo7Teh7pK2XsliGI1lYOrqY4oQRXh4Bw/sc2jde6s3/7boHbbk4tphzXvs6bT65mERpVHXK7XtSX2E4Uy+hb2PBUIU6eHTs18/721L5//wx49TkOm1TYtaHdzdQUZCw5YfpwD4b+qq9iGK0lSX5uSWloqsLCyNGgYlYHS+bMjSdZe3h1i2M6EGRVE6ZUVJ+1XJNQTZOf3DKb224szOz3efVXNdlny5fqKHFEYktAudLTAU0xl4blZKWYuxm8zKTYwoiiKI5seKImrKsyjEZFjbydocW9ewNFkYc/LwyXxDtzkj+rc5vxBCCCFtZfKFXUfCbtd6jxzc3c6Ex8QwhDAcZwts+g2fOirANT/5+MVr+dXqVk8fDKdzuUITiUwmk0mlxmIxj8lQ5WWmVKt03n2HdjPvvDsLRZGayrhTmxZ/cdt1/Ndfrwp1k72CoK0JDKcx2XyXwNGTxnhacnPO/nY+UUO8uhF8GMPYwpNvIEJ1pbWKTinmUdhjLrNp1sMMwxgyS1cTDp9SxzxMa6vPJEWRmtr0U1u/+WG/5u0v1i2b4WPOb7UZkCJ1pVE7Js/4jRfw5U8/Te9h2/6gjSL18tSbe9esPqR3WfLt/03s5cBnPK9dCsNwBotn7dVn7PgBHtKiG4evRBfVadq73zAanckX2r/z/tJAQ4668NdDf2U3JIeh8cQmtgIRD5F6gmyWX4ZUKSrk6nrEspXasNrZ7orhdDZb6D1o2jujrEQo4/COS9kv3etTr5LX1Ot1pMhIxoceKuAN0lXtbZS2Mic2JSGFtB5tZ23Ae9FqUOq4Pf27L2z/uIT/O7dvyWAJ/6VvcqReHnNq3ddrL9WLR3+39v1gG4jZ2o1mYutvwAvDKkqqdcji2Y6MfDN7Ox6Rr8jNyanW95Y0xvB6RU1FHcLYImdH6XNHrRCaohth5zKqjUM/6mvTjtNLq6itVNSpEZMn5D6Vv43B4nKZHBqKz00ukGvdpe0dCUepKhNuhz2s1jqOmehn3L512oXU5Ef+9fH3xw36fbl00QB7o/9VWwMulNnIhDxGRlm9vN0DQ14EpdepSYJAOK1zwlGuwIjPYOFIqX0m7KYzmUwMx1ClStn6uzaKIlSlESd3/nQ413faV7PGukvbmDOV0pVnh3205Pt65082rhnrYdr+KwNFEdqSpEvbtuwpFo1ZtejtbnbcDoQjGFdsKpMYcaJKlHX6DkfVLCMzcxmdXqavrn2cRhgXmboYmxjTMjKLyrRNvpDSKurq6hU6U2tzKwGrYyNUcLGVo4zDwHNq614+VbmmqrioRKXHetm7dnJjNgD/al0Vt+kUdaVFxZVqx56uTiYGrc4x/Fy40DJwyBDz9i7uZ2fMfPknM4pUFSSc/OWnw5m1xqM/XbnXEIsAACAASURBVD55mBEk3O0IoWfAABkrJjM+rULryX8mBGMYefQZYnD5ijojq0RJSUSPLslUdW5STgXGtw7t7i96zkGk9MUpV8+dTqZJ3n97lKw9GUMwGp1Bo+OI1Ov0JEVR6EkjB0kSepKgkEQsFbNo7T1VSV3dg0vHr6YoXAZ8O3lUO8fZtAdVXxy+9sv1haKF21ZN9LNubD+iaosjkyqc/DzFL10WVVOSkJSslnl2szVp2oqM4TSEY4gr4HVCFgeEEKXIjY/Lr5a6BNkaNWkxJNXl+Un1NfUMm0BTUWfckPkSaxspn4PHZMTX6Xs2TRJGVZY8rNAoaMyhji6tXQspilDlRf/zw7aLgu4fL5vX19HkcZRA6svzorL0nv4Oje09lKIy/pcvV96snrTpl/f7uDQ29FLyioS0EmN7Z5motbZRitKWpfy1bdPFXJ+Pv587tOeTIfX62oKoROTRy0KAI4QoeWVmamoV19Ld3pzHetKUh+M4hmOIzeNw2+joSNal3I2qoLv7BciajunEMJxOIYQxhcLGY8u1cQmwMzkbFZuRU6rTyx7dLEhdTXFGflE5x/VtNxthaxnXyKqC+3FpNEc/XwuDpnXBaXSEY4gv5L30+DCquuRhsbpe6tjLzQo6qIA3SRfFbaSyqjA9L03FtJOYi3kv3DkBw1lOI3acH9GpdXsuorYwet/WzWdiCc/BX81f6AYDmToIt/QY6G31y96Es1GpI629nnlWppkPHRm68fzllAd3M0vcupnSMYRIfU3E1TM5yKTvsPF+do/uLJravJi79zPKjLq/1cPR+MmjP6EpuXfuwr0sbuDSPs7CllOakbqyu2cuZWsMfHoNdrdmsESmdg6WEn5STlxaQU13cwHn0bdRuuqy/ILKcr5JD29fMwETwxClV5THRV1JKzNx7Rbg6dBC3ldSJ8+OO71n7z2N6aSPvhjixHsS7unkJYnRUYm5XI/+Ae4Wgqd6IZE6jUqu1xFIq2m5rzWhKjy1Y11Yerdlm6cGuj1ZWyPPO7X9va15v5zZ01vSMGAwJfbeg1y+XWB3XyuDp3te6tQKuUarJ3Q6Hflsl0Ey/eaG+Yti/Fcc37TcuTGNIqEqSYvNKavhBwz3d2A9imv1yvK02OiYTJpzUHcvW/FTI6pJvVYl1+n0SKfRES2UU3xy3aIfLzh/dmnHjG6NczAQlXkpiVmlenaPoZN9pI/KIeXlmTHRUSVqR78gLxvJ0yO3dVqVWqchkUanIUjq6T70TLHLwDH+Z6IO378QUzp9qPXjwJbQViTHxhXX6V17hniaYwghQl2TFR95L4Ww8ffv5mLCpSFEUdrSxAO/HchAA76YMcTd8snpqqpI2P3dnGtmR06sdm1In0Goy64f3Hr8snjsVwuH+D15O69TlVw/+Nnm8Enf/jLBX8zEEKmqzn8QdSe33sq7p6+TOY+GECLq7odt/+0SPnTBguH9pI3BN6mriz69ceZGz6ORsz2YCCEqP/bPz5ceYYds3fBVP3vho8Ca1FblpzzMKWK49fJ2fZz5jiK11XlJt8KTaDIffz9XqYiGkdk75o89gpbsP7Wqn03jtlBVOXFphRoav3e/fhaP40XMxDbAz932YsLduydzxnl7sxsOROnD2Kj0amzglNBuFqKGR25SW18aF3k9s0rm7t/dzZZPR2T8+U/e+Ug+Y+vJNdNkjduiV+YlROTVqg37vOVn3vLDLkWoFHIFInmkVtdWqyFF1KcnRubX0v2nBdi0byQwAP8RXRK3kZq6nPi7N2LzEGaLEQ1z87wuvztKXZd3/eifRy5kCezmfrBmjK8RdGvrMJahx9BxnifWXrt0Pn+4l93T2XcxmnOfmVMGxh2KPLTvT1/jWd4WBtr0+6cOHCmy6btw3nsejelBNBWJf61bteOGy7fXdi7s3Ri3ERVZETevR2nEoQOG2Bm1lhZBn3vgi/l/FFt+9nOQq7UBnWfec/S4UelpRy///vtvUt7swZ42bFyvLs+PPXr8eEyhOHTqrBGBpgImhhCprc07vXPxD5e6zf92i4ODsGlnO4rQ1JRnhd+6dunElUrR0KXLpw/3ETeNmrQ1mWd++ebbowZLDm37eLTAsMnZo1NWpydG3HtYXq9HuXH3ExIcgj2faqjT5cQe/vX32wp8ZHHGgS3rnnygqkk+tT9bPITZ8IumyLqUy3s/+3yfbMxvP343yce8yXSthKqiJPnmzdS8cq1cn5xwLdPrbU/TFjIgZ5zduXWA14rhfawN2ISitiTm1sF/zpcLnGfMmOPfmF5aV5d3dc+6j3eTM7dv+XK6WNYkntKra7OTo++mFVbrUH5ifEKstzTY7Nn5pRT1p3atfdttzRB/DzGTUFcUJR07eCy6xHjwtBXjhzZmNiGr8+7+sX7x2ewpa//8cqqkaTmEsq40KvpWXFGRHtVk3I552M3Y24Hb7MqGiwPHfDA5PGfH+e17D0hmDve0kNA19SWx4X/uPZzJshw775P+dnSEENIriiMO/zRvU8WYtT9+Z2PC5SFEaZKv7d5xMpXj7JYY/nt+xJNvlReF/3laHrK4MfrRF6dd2L/vUr7KU1lxdNu6J0ddU5917cR9rf07j3czVV/y4K+fFh6IH75q+7fW5jwuQvLC8K0/HS5Ue9QXX9q7+XJjKaS24uqJw3VMv+ZvJPNvHf7thLfxOxO8zbiUVlmVGHnq6OlEjdGYaTP6uRg/DhkpVXHsqa8Xfkv2+nL9BgfJo/R++sqsA7/8FCxZHOBkJ6Tr5QV5Kcd2HkrV2o+YuXSw/5O2VIbQfvDU0TdS117ds/Vkz/+bHCKlK4oiLp65lU4bOHVyaE8z4ePk1OqqjOPbF/1yO+jDjT98bPs4d68m7vD2HcG2c3oHmAlZ+tqK/HtX/zhxhbAOWDhnhkuLiS6VVTm3bt1Mr0EqemXK/ZT8Hr6WMm6LNyl1VWrEzbRaql/fobbCzk1/A8C/3P8+biO1ioe3Dny3aX/UQ60OxV/Yt8VR9tnkQbbizsur9uqQ2pqU60d2/H6ykh4876MpA9yEbQwpA63CDftNXjr05LzrYSdjxi3sZde81QnDWBaBH65azdt7JvLmtpVJfKmIRqroxj6LZ8we28flycJ0BpNJo+OUSqt+0phDaiuTr12/EUf5TgnpbitqbUgCzmBxmBhGydUqPYUQwljWXqEffMI2tTsZn3f2u48vyMyZGEEjdXSKtB85e9rb4/o5Gjc03WE4jcll00k9odU1GWpHkfqymG2bD+eqxSKuzsx3ypSh/dydxNzm+cdodAaTzsAptU5DPupsRWmrMiMO7PsnvbwmK+vBvbR8NUKZ0du/Xh7p4SY2lDgPeXt6oDsHR4jUFF7481hqmapaf3DDZwef3ahRxo+SOOA0GoPJYNI0OrVa/7gYXX3xrbM7Tt0tqyzNjrwVU1iHCHT59/+rfXDdUSowce01edJoWz5CCGEmVj37DFWly7N+WfHR1SBLEYvUqhikus6q77uTQscPCTTmPL5T0ugMFoOJU3X6xhE/lF5ZFLN358GU8rq87PiIBw+VCOXE71m3Kj6sm0RsYDV45Nx+PjwcIYQZB02cPpEWnlpz6qvlFxxdDRikRq/C1PXmw2dNHDVlgPOT+ZVwOoPJYtL0Wr32STnq4pgzPx+8VVVflhQfHpdVTaHqm4fXygsuOFqLxJYDp80cZP+4MZwn6TZz1dcC84Ph13Z/chU3MaFrFbhWU2HkPXFM6IShA0y4GIYhhNPoLAaLRmn1Wj1BIoQQocz4e/eJovoqKnrXd8/MmkkX2xmJeQ1BJKkrizgddj+zvKb+ws4vLjx7dPp3E7Ae9djDaXQmm0UntHrto8OjfnB517XEGgW6vefH20+viXFcB4keFYMwA5lnzwEjqMLafzasfhBhJ+FQhBbTKPQcxyHL50waMcjO6PGDAobjdCaTRdPVa1WPTlXcuNuwkAGZzKL4rR8vl9hZ82mEQq8z0BW7v/vJoLHT+1g17VWAc12Cpq74nPzzRNTBrz+KOivhkEhbw+4xYtmIaYPdzRpz1+E4jclh0wkdodU17Dbc1L7/wFB+qe7euuWp//jLBExCo+AgXan3mEWDxo0f4N48ZRJZGX74wIX72aXluVExd0oRwqrSz+5fU/HQ3lTCcfafNmakl4z/5JUwqa9NvnP2aiTlPWpyX08RC8I28Eb538dtGE4XWfqMW7hm9MKGf7CsbQSd0Ons1aNITUn6zT1790Zky0IXvz9+uLMxp7PT078pMCPbQcuXTZiwfN+OHZ6mnwywazZpJobROdZ+Iz6y9kpOyyosqiYRw9jEycHZwcKc0/SM1WnVGkLH4Vuayp4Ma8Nwrn3g5NU/vW3ezd/aoNVu06RWrdAgxHC1tn6UhAuj8xx9h8238CmsLEp/kKOiKIQYXIGlo521qaWRSNDYC5MiCbVcqeMY8GTGwibtYRjGMXLz72nDsnJzNjMxlYpaytOr12nVei2Lay+VcB6f9jhLKHX1DTDWoMC+g6fObLY8SyCTGDzeOJowcNzKbX0UrY0KsPJ4NHUYSei1Gq2GMLO1MBU8vr3idK7M1qcHpUaoz7CR05uuiNH4plb8x2+ucHPP8Uu/CFEQ9dkxGcqGf9HEZjILWwcrE0mzvuiEXqvWahgciUTCfzz3OEbnGjv7BBioUa/eIROnNashnWsoM3x8DHED39BZUq/QSkVJRkJew/hCNldqY+li42gsavYOmdRr1Sq13kAmNuY/3h6MxjW27hag0yHUd+DbzfcEnS02EzTrOskwc+4/d6VD76yHGWnFBEIIiaSmZrZ21lJTEedxnzOS0Ku1ahrLWCIRclkIIYQxJMMW/eQ9t+UdjjH5br6PZjbDcL5nyHvfO4xsbSynzN7P7FFjFknoNEq1XiARSkQN7Uk0S/9ZW/4a38qRpYnMuhs/2h2YsX3I7CU+Y/XygrjMGp0eIYThPGNjWydHUyNZs8nBKJLUaTRqvZFQYmkoZGAIIVwauujbbkpabVlWXl5tw2ICoa2tmbWFm0TwTI45OkcSOHSetfew5Ki4Kg2i0YWmZm4uLqaGRk1fVZOkXq1Q6niGAplhw17Hbfxnf/HtWJWuJisxp2E2YRpdYmVhamVvY2LMeSaHDEti6+qDmajJgL5Dxj+18RIbQ07T3zGlKU69eWD/xTrJW/NmBtkbMOAqDN4wFGgnQlGasH3FQGOhbfeRWy8m1miIrq7Ra05f8/DIumkejv3mfX4xrVhDdvgLNMmXvh3m6RUy+UhsuVrfwfXL4nf0NhH2GPZ3SnUH1yQ0FTH73nKyDBrz862Mjp4F2uyIHVOCvHuN2HnjYb2249vcTqqyuB2LBjtZTf7heFbNqyuG0hXFHXp/sHe3kB/C4l9hOaSuKurgqmAbz0nLTyeX6l5ZOfqK9PPLR3m7BX51JKJC/eo2R1+XenZ9fzvn4fMOxuZrX92FRFeXH7Zusr1s4MqfY0tVr2p7SEJZeGfHEAfb/u/8FpH1aq+LpF5ZkHhmxfQhAb0WbD2WUaEiXt3JDcC/FPTNaidKK0+/uu/HHZEcm5DZc8YGOQtffBAsQAghRBPahL63ZvNXQ4qjty6d/8M/53MqO5KtS1WedPlIpNpo4oKl/Z3EHZvGklBnHf59p0KycNX64Q4dHbKorrhw4limcMqiJRP8bDp2FmhqssNP38onB81dNMzXktt5s3w2Q+nrs2MvXIwlB819f3Q/S8ErKgYhXX3R/fNXE6t6zlo4tpfzqyuHqCtKOX8hAfebN2dGb3ujV9W8Qigrk6+ev5PlMWP+OwN8xJ02qf3TSHVl9vmwO3KHWe/PHeJq+qo6yFKktjrr5sGLmf7jFk0f62b0KiZaayhHXnL+VFiB5N2FH4zysnxl10WK1NdnHd2/cd6Ha26X9//om4+nvmVr2I5JvQD4r+nKeeVfI6S++sGB91dsKcJ8Jo9/b9QgGacTp2h8Y2E4W2zTd9wStx6Drl3fGXbrEsv6naGuvHa9M6eUBQnhCvN+KxdO7+NuwOrYVEhkSfqF2PIl68NG9rbocPCkzIu7HN99294l/Zy59A6FEJSm8mFMMd1u8Q+LhnU3ZHf2rFRPiqkvSErX20zauGKmuwnnVRWDKF1dQUKmnDd3/cqxwSacV5b6l9Ipi+NzKgWjN6ye2M2K3Uk53Z4thlBXpMXmK2Z8v27KQFNuZ8xn30o52srU9DTV4B+3zexhy6a9qiiUQpq6lMRUKnDzho/9zXmv7vCQ8oeJ4TlBW3cvDHbkdOwX0bGCiKqYy7/+Rp+54Nc+w9xNBSz6S0+ABsBrCaM6MnHQG4pUVyd89e7AjVeMh874acvGobbPDooDAAAAAHjV4F3fc+mUBf9s+fK384RDj6kfzO9vDUEbAAAAALoExG1tI7Q1MZd+XrfxImH51keffjDQiwV7DAAAAABdA6KQtlDq7PtHf9y0JwdzHDVz5dgQA+gOCAAAAIAuA4FI66i64vuHdvx2OZLpN3rVkgWe4hdNMkeoyxOvX7mVwu85uq+3jQAmMwUAAADAi4D2ttZoajLCdu88cDZL4jprwcdvuRq/+K7S1uXfOrZz3YZTkTn1+k6sIgAAAADeKNDe1iJSX5Nw46/fD56qxIZ8vGpaf3f+SzSS6WtKM5Pz0pCBj5DNpCGEKEpXdHvNqs1pcoQQ09Z/wvR3Q93NGaQq9dcV/3ejREMiupFdn6mzZge5POpOR6hSti396laFnkJIZNZ9zLvvD+kuoiNEqNJ//+K7aGrG6vV9zWhIr8i/8de+fRdiFQghJBjw7rqZIyXNZp4kq67t33DwfEaVFuFcydCJX707mJ507uBvh66WahHCg2d+OzvEQdCQ6UldlX7hr70Hr6fpEeIJxnzww9huhkyituDKkR9/P59HIWTp8c6M94Z5WDTNnK4rTr6wf+/Bew81zXcC3dC67+Tp0/p4tS/NBwAAAACeBe1tLaA0eQ/O7ti+506W1YA5c94eYG3wMjmwKE1NcdbDvBIah8lm0Bp2OC606dPNMPriqbtJhNTG1UxMQwjhTLM+Q1wzr5y+GKE1dejhaPYksxjOMO8X4phy+cTFu2WGdv287Lg4QgiR2ZF//XHg8MnLeXIKIYRwlpFzNxdhZXrY8Wy6/dAA72feyWI8By8fXeXNs6fPVrOHBvoKaTSeibkRURJ/+VyJoYe3oxG7MZRn8GT2zqZEXuSJ4+VcX0cZh44jROfwpUbc/KjrSSXWHt09LQybp9mk1CUZEbevlRh7jnvvgyVLlixZsnC6j6jwQlh0idLc3BxGdQAAAAAvAe6jz6CUZWkXD/5x5BrpN+bDD2b0shW9VOZSTXVR3M3we5kkh8diM+gIIYRhOE/q17e3l6XQ2KFHgL+DmItjCGE0oa2djIa5zFr67eKpPlLhkxSWGF3oMWjqhCFGTIGJs7u7mREDR0hTHfPn1mPJFcqKyvyKWoQQwulcibWVhbFZ0PD3F84d7m3NfrpxC2OZe749f844cxbT2NzD1oyFY/qa6switfnbK79aPj/IXvwkcSaNJXDtM3LCKD9bIyNzZ1MRk4YhjNRpago0DItZn6z+aOIge0NuszybenlFTiwuCpg3773Rg/oGBwcHmhIxJ04VOgQtW/nJYHvDV5ZRHwAAAHgTwHvSZihKryy5e+qXdX9c49tOHT+xj7OU0CgVmuev2SJSW593au+6r7eH1eqRvYDDYz4KXDCMxjKwdHRgpNUU19TqEKIhhCii+uRf3zF6b166wFnMeTpWxBlcAY+GYRiO4xhCFKmMu/xHuC64X++ci6l6gkQIIYqsi7t5JLrWYcwnw7rZcOlYC/nEcRrbd9A7fcz+vn3uYvKCaeKcEz9uSxa/9cUXC/rYGdLwZmtgNKa5X5/ebn/vjL+aWxNsymeqc+4d3nk7651Ptk8cYPLsLAU0vvWITz9/C+FMJg1DZEnq/g/nb82Rvv/n1vd6Wb2yDPQAAADAGwLitmYIRU7k32s27MiqRqh63+JR+xZ32lfjNDr9SViEYRhOZzLoCD2ar4IitQ/Dd/5+dMLKsGHWnBabQTE6vfFwkfV5N47t1gXNHa869M9lDCGEKIqozY+9dkYvC3lneHczXqsTzmAMUeDCVSHnPtqxbytHlHtR5TX7mw/624pbWh7DzZ17eZnvO3E+ImuZF7Pg8Jc/nu35zp7pIyTsFr8aw+ksJh0hRBG1xXc2rPwsWjNs3e5VQ1yY0LILAAAAvCy4mzZByXNubli/LTzjVXy5SCQ1FfEbwxeMzhJbyKRIp9XqCAqRtUU3t28O67lszgD7Vo4JTWBtaYkRWo1Gr9dWRV48VW/vP6ibucGjLmyUXlkSeeFEpIIzoJ+rVNB20xbu3nuiN/vBLz9+nyJ+9+vF/VoO2hBCCLGMnHoNcSKL71y/HbZx837b0O1zJ5tyn7OxpLwyae/6VafuWU5b/d3kPi3HoQAAAADoGLihNkHGh23acz6TfCVfzmGw2fQmzZsYTmMz6Zr6yupalUaRf37P4SzhkrGTLVufRgvjsLmkqrK8orY08/q1m3yLwL4uUm5DDzaK1FakRF+8qbUb/E5vbzGz7bpQ6tKKaraliYHU3Lu7t7lhm2cBbtRz8CgXcdLhpRtr3LYtn2P3vKCNUtdmn9uzce/JuoAxX82ZImuxZQ4AAAAAHQbvSZsS2AW+t8D51Xy3ebchnlJhY4SE0RgcI5EUqbUKeWXizX+uRFmN/6SPK5/eagyF000MzVkog1CXxV+LrZY5Dw+2FrNKEEIIkVrFwxth5wo5/T4d5mzEarMilOph7Okf1ocx+s72vXzi+pXwscPGOLfe3oYQojFYTFyuZs2d9YHbc5MP6xSl9/7Z9evuJEmPDxd+HGzDosGzAQAAANA5IG5rguY5/Ottw/9HhWE0OpfDx5TV+YlXjmUnCvrNC/YwYLfRdR/DuHwRm6Yuy7t5t1RnF9Lf1Zz9KCQitOVJt49GkiGLBriYtjlmk1Rm3D/x48YLcoc5axY5J9LiV584dyOqj+1gk9ab6Mia0uxyDebYr7s1/zkbRerqM6OPb999VWU5dtFHb/tYcBiEKiPqzxRswrCeMEsYAAAA8HKgLaSrYEy2samZmJ4VfvZchrZn/4Ge0taHEiCEEIZz+QYMZXF8eFQmz21AsJWwMQ5SJl0+eda426yRQW2EXwiRyozoEz9tuqZzmrh8yUBXiSSg7wCpOvri1biieqr1terS4qKL643cg+1FbW4RRWpK02/+vmtfksZn8oJ3+nkZcugYUR2/65vt9x8Sba4KAAAAgHaAuK2rYDidyeVSyqyiGkHA8EFBzsKnhlySutJb+777YPrPYclVmsdhlbqquqic4dtrgJOsScJbVXRsXq933/OV8ZsHfhSpzbv2yfS5X2x9UKGrT7l3fP3aH64mmw6dFORsQsdxOtfQyICdEXn2+IXwIuXjbn1lETumTZm/+2y5DiGEkLI86fal1MJqLl/UYtZc9b0Tn0yf+FVYqk5Rknho19az94VvTZ09ZoCFiIWT6qK/f/v2SKKdo50QpkkAAAAAXha8uuoyOJ0tFslMnO2HThox2M6A9cwrUlJVlHr/zD+kyfjQICdDFo6xDSUmBmZC/xEjB5s9mi4KE5nZGtE4spFTp/tZthBXkfKCW+fClMoevRxuHvtu/eGoUh1mlJwuH+QsxOuyju776eZDZb3u4M9rJSZGi4b7GzERUpUknj91kbCbPz7URFN4b9fatbsvp9URtN2ffOLkuHOq11OFEKVZ4ZfOl1tMe8+8/I+f9twoVnH//nne1f0MHCGKVBfnZNcarbS2gYy7AAAAwEuDuK2rYBjHJnDOvqvv4ByxSMhoreFTamPnaCpk0xBCDEO/6WfixuBcsaHB4zAIE41Zcbnf+3SRkRG7lciIwRU4O3r69XHy9x61Wo8QYgqMjPk0hInsp35+ZsQyEiFEo/NFhqLHk2JhDIGZt7cVFyFc6jVjza4xKxua3lgG0lbKoPf38ZK6iNbcHvDxMy9cMYwhkkggbAMAAABeGsRtXQbD6WyBiUzQ8qcUpSgryi2yDZ45rrezmIkhhDCcyZeaPzU0AOeKTLmt9Tsj9XlJD9WWsxbM9ZPwaBjPoNmnNKbI2OKpVSmiOiou1Xjg6ikjRTSEMDrHwITTfLVmi2vrMhLj6sYuWxhiQWdhxpbCtrcZAAAAAC8B4rZ/K0VedIWR/7Bxk7pZ8F90giii4NxZ3rodC4Nt2hzx0ISq8MatyhXHt4aYPz0jfYuovPv/GPXcNmWmiwga1AAAAIBXDaOo1kcSAgAAAACAfw0YTwoAAAAA8HqAuA0AAAAA4PUAcRsAAAAAwOsB4jYAAAAAgNcDxG0AAAAAAK8HiNsAAAAAAF4PELcBAAAAALweIG4DAAAAAHg9QNwGAAAAAPB6gLgNAAAAAOD1AHEbAAAAAMDrAeI2AAAAAIDXA8RtAAAAAACvB4jbAAAAAABeDxC3AQAAAAC8HiBuAwAAAAB4PUDcBgAAAADweoC4DQAAAADg9QBxGwAAAADA6wHiNgAAAACA1wPEbQD8j1AURVFUV9cCAPAmguvPfwa9qysAwGuDoqja2trw8HC1Wt2zZ08zM7PGj/R6fWJiYnJyskwmCw4OZjKZjR8plcorV65oNBpfX18bGxsajdYVdQcAvPb0en1ERERBQYGHh4eLiwud/ugOTlFUXl7e/fv3CYIICQkRi8VN17p9+3Zubq6jo6OXlxebze6KioPOBO1tAHRAbW3tnj17VqxYcfPmTb1e3/j/qqqqbdu2rVix4rPPPsvKymq6SmFh4Zo1azZs2JCenv4/ry8A4L9Dr9dfvnx52bJl+/fvr6+vb/y/Vqs9e/bsZ599tnTp0hs3bjy1ypYtW1avXn3jxg2SJP/nVQadD+I2ADqAz+dLpdLc3Nzo6OjG6yZFUQUFBfHx8cXFxampqYmJC+uqxQAAIABJREFUiU3fR0RHR6emptLpdIlEguPwiwMAvCAajebg4FBWVhYbG1tSUtL4/9ra2qioqIyMjMLCwps3bza9/hQUFERFRanValNTUw6H0xW1Bp0M7iIAtBeGYVwu183NTSAQpKam1tfXN1wfSZJMS0srKSlxd3fX6/XR0dEajaZhFYqiHjx4oNPpHBwczMzMMAzr0i0AALzGaDSao6Ojvb19Tk5OWVlZY3xWWFiYkZFhZWUlFovv379fVlbWuEpWVlZhYaFUKnV2dobrz38DxG0AdACLxXJ1dbWwsMjOzq6qqmq4bqrV6vj4eLlcPmPGDGNj48jIyMrKyobltVptYmIin8/38vIyNjbu0roDAF5vGIaZmZl5eHiUlpbm5ubqdDqEEEmS2dnZubm5oaGhffv2zcjIyMjIaFieJMmG5n9HR0cHB4curTvoNBC3AdABOI6bmppaWVkVFxdnZmY29BcpKytLTU01MzPr3bt3QEBAYWFhdnZ2w/IlJSVpaWkikcje3p7BYHRp3QEArzcMwwQCgbOzs1arTU5OVigUCCGFQpGYmKjVart37x4SEqJSqRISEgiCQAip1er79++zWCw3NzcDA4Ourj7oHBC3AdAxxsbGTk5OarU6OTm54eKYl5eXnp7u5uZmYWHRo0ePysrK+Pj4hoVzcnIKCwtlMpmzs3OX1hoA8F/Q0FVDKBSmpqYqlUqEUFVVVUxMjEQisbe3DwgIoCgqIiKi4aOampoHDx5wOBw/Pz94SfqfAXEbAB1jYGDg6urK4/HS0tL0er1Wq83MzCwtLXV2dubz+d7e3gRBxMbG1tXVIYRSUlIoinJxcbGxsenqigMAXnsMBsPW1lYmk+Xm5lZXV5MkWV5enpmZaWNjI5VK7e3tra2tU1JSiouLEULZ2dnl5eUSicTDw6OrKw46DcRtAHQMjUZzcXExMzNLTEysqqqqqamJjIzkcrn+/v5cLtfZ2dnJySklJSUrK0utVt+9e5fNZvv7+0PaJADAy8MwzNzc3MHBIS8vLzMzU6PRPHjwoLi42M/Pz9TUVCwWBwcHFxcXx8XFIYRiY2MVCkVAQIBEIunqioNOA3EbAB1mb29vZWWVkZFRUFBQU1OTmppqZ2dnY2NDp9MNDAx8fX2LiooaBi7Ex8fzeDx4SQEA6CxSqdTLy6uhq4ZGo4mPj+fz+Z6ennw+H8Ownj171tXVJSQkqNXqlJQUtVrdq1cvyADyXwJxGwAdZmRk1NBfLTk5OS8vLysry8nJSSqVIoRYLJa/v79cLk9NTU1NTa2oqLCzs7Ozs+vqKgMA/iM4HI6Tk5OhoWFaWlpD5zYLC4vGi4y3t7eRkVFycnJiYmJmZiaTyfT19e3aCoPOBfNcAdBhTCbTy8tLKBRGRUXV1NSo1Wpvb29DQ0OEEIPB8PDwMDQ0TE5OpihKqVQGBAQ8Ne0MAAC8DDs7O5lMlpiYGBcXl5KSEhoaamlp2fCRubm5h4dHXl5eeHh4SUmJnZ0dZAD5j4H2NgA6DMdxV1dXsVh89erVK1euSCQSFxeXhjQfGIY1jB5NSUk5f/68SqXy9/eHDCAAgE5kbW1tbW2dkZFx9OhRhJCPj49IJGr4iM1m+/j4lJSUhIWFFRcX+/r6CoXCLq0s6GQQtwHwIqytrZ2cnHJycq5fv25ubm5ra9v4kaGhoZeXV0pKSmRkpIGBgY+PTxfWEwDw32NgYODt7Y1h2MmTJ0Uikbu7e+Mc8ywWq0ePHhqN5saNG3K5PDAwEKbX+4+BwwnAizA2Nm7oNUKj0fz8/Bo6tzXgcrkeHh4GBgYajcbZ2dne3r7rqgkA+A9iMpk+Pj4CgUClUtnb27u4uDSOfKLRaDY2NnZ2dmq1WiwW9+zZs2urCjod9G8D4EXgON69e3dnZ2cej9erVy8ul9v4EY1Gc3NzCwwMjI2N7devH41G68J6AgD+ezAMc3R09PLy4vP5/fv3NzMza/qRRCLp169feXl59+7dZTIZDGb/j8EaJ6YFAHRIdXV1XFwcRVGenp5PzT2qVCpTUlIqKyudnJysra3hugkA6FxqtTopKam8vNzZ2blpPw2EEEEQ2dnZDx8+NDU1dXFxYTKZXVVJ8CpA3Pb/7J13fFRV9sBfm16TmcxMJplJb6Qn9I4CIs2CDRErAro/LKvorror6rpiw7KuCgiINAUEQcQgnYQaQkJ6b5NMMpNJJple3nv398dzs9kAIcJMEuB+/+Dz4b2bd897b+5555577jm+wev1lpSUFBYWRkVFZWZm9kyy2tbWduTIEYqiMjMzexY78nq9zG4gjUYzatQooVDY84JWq/W3336z2WzR0dEjR47sFdje1tZ2+vTptra20aNHJyYm+vvuIBDIUIamab1ef/LkScb7K5PJuk85HI6cnJyWlpaYmJhRo0Z1e38BAHq9/vjx4zweb/To0cHBwT0vSJLkqVOnqqur5XL5pEmTumPeu695/vz5mpoajUYzZcoU6FGGQAYUAPEFLpdr7dq1Wq324Ycf1uv1NE13n/r555+HDRsWERHxz3/+k6Ko7uNms/n1119XqVTLli1rbW3tdUGbzfb8888HBwfPnj07Pz+/5wWZvoYNGxYdHZ2bm+vvW4NAIEMciqLOnj07fPjw0aNHnzhxgiTJ7lPFxcXTp08PDg6+9957LRZL93GSJHfv3h0aGjpjxowLFy70uqDX6928ebNGo0lNTf3hhx96XpAkyezs7Ntvv12lUn3xxRc9T0EgkAEA7kvwDWw2W61W4zh+/vz5tra2nqdOnz5dV1fX2Nh44cKF9vZ25iAAwG63FxUVWSyW8PBwkUjU64J8Pv+JJ56QyWTHjh3bunWryWTq/sPCwsKNGzdWV1c/9NBD0NkGgUBQFJVKpRKJpKSkpKKiwuv1dp8qLS1lqlXm5+fX1tZ2H6dpuqCgoKmpSSKRBAUF9bogjuMzZ84cN25cUVHRunXrysrKuk8ZjcbvvvvuxIkTmZmZM2fOhHsVIZABBg4534CiaHh4eHR0dG1tbU1NDfjP6rNer8/NzZXJZGq1urKysrKysvtPDAZDWVmZUqlMTEy8tAgJiqKJiYkrVqwQiUSbNm3Kyspyu90AAL1ev3bt2tzc3Hnz5j3zzDOw6iUEAkFRVC6Xp6amOhyOyspKj8fDHLfb7QUFBS6Xa9iwYZ2dnYx7njnFuOgEAkFKSkqv6EzkP4bgu+++m56enp2dvWHDhra2NgCAy+Xas2fP999/n5KS8te//lWr1cLYTQhkgIF2m89QqVRMWur8/Pxu5VhZWanT6dLS0ubPn280GsvLyymKQhAEANDQ0NDQ0BAdHa3RaC6r+wiCmDx58iOPPGKxWL7++uuysjKPx3Pw4ME9e/YkJCQsXbpUqVRCpQmBQBAEEYvFKSkpUqm0vLzcbrczKshoNJaUlAQGBj799NNer/f8+fMul4tpb7FYSkpKgoODk5OTLxu3jqJoaGjoiy++KJFIdu7cefjwYY/HU1lZ+eWXX/J4vCeeeCI9PR1GtkEgAw+023yGQCBITk4ODAw8f/48TdMIgpAkWV5ebjabmQUFt9vNLIwiCAIAKC4upigqKipKpVJd6ZoBAQEPP/zw5MmT8/PzN27cmJeXt3r1agRBFi5cmJaWBpUmBAJhIAgiOjpaq9WWlZV1dHQgCAIAaG5u1ul0sbGxs2bNUqvVZWVlDQ0NTPvy8vK2tjalUhkREXGltU42mz19+vQFCxZ0dHSsW7fu/PnzX3zxRU1NzaxZs2bPnt0z9w0EAhkwoN3mM9hsdkxMjEwmKykpYfRmZ2dnQUGBx+MZNWpUeHh4aGhoRUWF0WhEEISm6fPnzwcEBCQlJfXaSdoTpp7S448/rlart23b9tprr5WWls6aNev++++HpUsgEEhP1Gq1RqNpaGiorq5GEMTr9VZUVDQ1NWVkZKhUqrS0NL1e3x3FwUwvY2Ji+pg3Iggik8keeeSRMWPGnD179vXXX9+9e3dKSsqiRYtCQ0MH6K4gEMj/Au02n4GiqFarValUJpOJCeNta2urra1Vq9VxcXFCoTAjI0On0+l0OpqmbTZbUVGRQqFISEjou3glh8OZPn36gw8+aLfbT5w4ERUVtWjRopCQkIG6LQgEcmMQGBgYExOD43heXh6z86m8vJwkyZSUFC6XO3bs2I6OjvLycrfbTVFUQUEBn89nllb7uGb31DEoKOjEiRNer/fpp5/OzMyEzn4IZLCAdpsvCQ0NTUlJoWm6qKiIoqj6+nqdTjd8+HCpVMrn89PT05ubm5kwtYsXL7a0tCgUiisFt/VELBZHRkZyOBwEQZRKZWRkJAxrg0AgvRAKhWlpaTKZjAmx7ejoKCsri4mJiYqKwnF81KhRBEEUFRV1dna2traWlZXx+fy4uLjuupZXgs1mh4eHSyQSAACHw0lKSoJ5XCGQQQTWufIlTGFKPp+fn5/vdDqLi4v1ev3YsWMFAgFBEElJSTKZrLi42GKx5OXloSialpbWsz7JZaFpOjc3d/369S6XSyKRnD179ttvv122bJlAIBiYmxqaUDRweSmSglmjrwKOoTwWhuNwhnbzg+N4TExMUFBQSUlJV1dXc3NzYWHhjBkzVCoVhmFarTY1NbW6urqlpcVqtdbX18fGxiYlJfV9TWYP+8aNG6uqqgIDAzs7O1etWrVq1arg4OBbefYIAHCTtNtLD7YgQx0URbgsnE1A/eNLoN3mYxITE0UiUWlpaV1dXWVlZVBQUHR0NEEQGIZpNJrY2Nji4uKWlpaioiJmkaJv8wsA0NraunHjxsLCwrlz544ePfrNN9/csmVLSkrKtGnT+l5gvbkx2z2/5LeU660IgqDIrfv96AOAAARBQgN4dw1Xh8pgCPktQWhoaGhoaGVlZXFxcVlZmcViiY2NZdJDMqEaW7Zsqamp6ezs9Hq9qampV424cDgcP//88549e+Li4pYsWfLZZ58dPnx427ZtS5Ys6SMw96bH7aWzy01HS00A0Ley/do3AAAeG5+bqU4L72stHvJHgXabj4mPjw8LC6uurj537lxpaemwYcO0Wi2GYSiKBgYGxsbG/vjjj+fOnauoqBCLxQkJCX1fzel07tu3b8+ePVFRUc8++2xKSkpJScnmzZs3btwYGxsbFRV1y6oMm5M8UW46UtyGoghFA1it7VJwHEUAkhImmRAfFCq7envITUBQUFBSUtKRI0fy8vJKS0uDg4OTkpKYLI9cLjcpKcntdp89e9Zms9E0PXz48L7D1CiKys/PX7duHYIgixYtWrBgAQDg1Vdf3bp1a3Jy8pQpU27ZqSNJg5Imy44zTRRN0wigod/tEnAMxVBEzGWlaqXQbvMt0G7zMVKpdPTo0fn5+Xv37q2rqxs7dmxgYCBjXYlEouTk5F27du3atauysjI9PT02NraPS9E0ffHixbVr13q93kWLFqWnp3O53CeffLKwsPDAgQMpKSnLli27ZXeVYhjKJXAuCxdwcJWUS2AotNy6QRGEBojB4rI6SS4Lx7Bb1Li/BWGz2ampqQKBICsrq7m5WaPRMPNGBEEIgoiNjdVqtdnZ2TabjcVijRgxou+rtbe3f/XVV2VlZQ8//PDs2bN5PN5dd911+vTpH374YcOGDdHR0REREbfs1JFFYDw2jqK4QsIRcHA4dfwfUMRs95ptHh4HJ2CQhq+BdpuPQVF03Lhxq1atOnz4cEBAQHJycvdqApvNjo6ODgwMPHHihNvtHjlyZN87uTo7O7/88suysrJ58+bNmjWLz+ejKJqcnPz444+/+eab33zzzZgxYyZPnnwr15mhaBAq4y+fHSMTsqHa7AZFEBdJf/Zr9anK9sGWBTLQMFsTcnJycByfOnVqdwQthmFKpTI6Onrv3r0kSY4YMSIiIqLvS23dunXv3r0JCQkLFixgAtpkMtlTTz1VWFi4f//+4cOHL1269FYOtKUAkHCJxydqMyICBluWoQWKIrtz9d+fahpsQW5OoN3me5KSkqRSqclkio+Pj4qK6l5KYBKFREZGFhUVoSg6duzYPkwumqa3bNmyY8cOZhN+dz0ZHo83Y8aMnJyc7du3r1y5MjU1tdufdwsCEITLwmNUwiAxZ7BlGVp4vJSYS0Bb9hYkPDw8JiamvLxcoVAkJib2dMkHBgYmJSX98ssvTqeT2S91pYsAAM6cObNy5UqmUPLYsWOZFVUcx1NTUx9++OF333139erVGRkZkyZNupWnjgSOaWX8GJUIOpV6ESTi3KrfJb8D7ba+oGlgdngFbJzL/gPJioKDg6dMmXLu3LmMjIxe6wihoaGjRo0qLi5GUTQjI6OPi+Tm5q5evTomJmbx4sXjx4/vDkNBUTQsLOzZZ59tbW2tqKhYs2bNK6+8covnUqIR5Ja1XK8EQODC8Q0PQBCrw4ugiJj3B8LIuFzubbfddvHixdjY2PT09J5GlUgkysjISExMbG1tHTt2bB+jRq/Xr1q1SiAQTJ06df78+T0nnyKR6IEHHigvLz948OCnn36anp7e97rBTQ+NICgKVdAlwOfhN6DddkW8FF3ZYv32eOO4WNn0FAWf099nxePx3nvvvY6OjqCgIIVC0fMUi8V67LHHpk6dymKxep3qhVar/eabb7hcbmRk5KXBvyNGjPj3v/9tNptv5S1dEMhNDEUDo8W9JUeHochjk7Qy4R/wKDMVDoRCYWRkZK9T48aNW7Nmjdvt7ju4VigU/uUvf6FpWqPRBAT0XgTUaDRvvfXW4sWLaZpm8kpCIJABA9ptV8Rkca8/1rDvQkuJrgtFkalJCgG3v48rKioqKirqsqdUKlXfhWUYgoODg4ODr3SWCTHupzAQCOSGw+mhfs5r2XaqEQAEx5D54zQKMbeffyuXy+Vy+WVPSSSSlJSUq15BIpFkZmb20UCtVl819yQEAvEHcE3+inDYeEgAj8fGa9vsa4/WHSwy2t3kYAsFgUBuCVg4qpJyAoQsu5v8/lTTlhydscs92EJBIJDBB9ptVySAz3p8UtjD4zQoilS32tYeqT1aYnR5oOkGgUD8DoeF356k+L9pUXIR22TzbD/TtPVUo8kKTTcI5FYHrpNeERRFA4XsZ6ZGkhS97VRTtdH+6a/VKIpOTVZyYNWOwQYAQANA04AGTF0ASG9oGtA0ADSAWYlvUAQcYlZ6MI5h7/5U3m71bDmpAwjy2ISwAAELRsEPOr/rHzi+rgAACHw+fgLabVdBxGM9Oy2KQ2A/nGlqMDnf/amCpMEdKUou65bewjnoYCjCY+FCLsFn4/ATdll4bFzIJXhsHId5d29YWAQ2I01JA/CvA9W6dueGo/Vekn5qSvgf2qYA8QdsAhVxCQEXJ+D4uhxsHGP0D4HD5+Nj8BUrVgy2DEMdLhuPVgm9FKg32U1WT1mTVSHmamQ8FvS6DR4YhgUI2Mla8eiYwGiVkAWzJ12CkMtK1khGxwTGBIv4fySRDWRIgWOoVsaTCli1RrvJ6ilttqAoEqsS9n+HO8TnoAjC5xDRKuGYmMCkUImIR0APaC84LCxKKRwdHZiilUgF7MEW56YChT7MftLa6dyU07jjTHOXwxulFCy+LXJqskLY7x2mEAgEcs1Ynd6si4b1x+prjXYxj3hkvHb+OK0CppuGQG49oL+tvwi5rGilkAZ0SbPFZPXUtTmkfLZWxmNDrxsEAvEzHBaulfPFPKKq1Wbs8tQaHYAGkQpB/5MTQSCQmwNot/0BhFwiIUTsJkFhY2eHzVNndCjEHK2cD+vmQiAQf8MhsPAgvlzEuVDX2W7z1LXZAYLEBAv5bGi6QSC3ENBu+2Pw2HiqVuIh6bJmq9HiLtZ1BYk4EUECGHoJgUD8DYvAopUClYSb39DVbvWU6a2ABrHBIh4bg/FVEMgtArTb/jAcFp6oEdM0UmOwGy2egoYudQAXet0gEMgAgGFopEIQJGZXtliNVk9Js9VD0YmhYh7cegKB3BpAu+1a4LHxKKWAoukGk73N6inXWxQibgiMdYNAIP4Hx1CNnC/ls+vb7G0Wd1mzFcOQaLjDFAK5NYB22zUi5BKRCiFJ0TUGe5vFXWOwSQUsjYwPTTcIBOJv2ASmkfFFPKLO6DDZ3JUtNgQgEQoB3OEOgdz0QLvt2hFyiWiViAagSNfVYfPUtzkCBGwtzOsGgUD8D4eFaeU8qYBVobcZutz1bXYaIFFKgQB63SCQmxpot10XAg6RGCp2eqgiXVe7zVNjsAeJOGFBgxbrBgAgSZIkSQRBMOzyMgAAKIryer19tPG5PAAADOsrdJqmaUYkFEX9F2FN0zRJkjRN9yEMIzMAwK+SXCqYx+NBrvxGvF5v368VcgvCIfCIIEGQmHO+1txh89YZ7QiCxgYLBzHWjfkl9z3eGf1zVZ3gW3n6Hs7MqO9bM/gEkiQpiupDmAGT5A91SpIk88pwHIZRDj7wG3C9SPis/5se/fikcB4LrzHYP/ql8sBFo4ekBlgMmqabm5s///zzSZMmxcfHT5069ZNPPtHpdDRN92zT2tr6+eefT548OSEhYdq0aR9//HFTU5M/ci8DAIxG44cffjh16tT4+Pjbbrtt5cqVer3+sn2RJLlp06axY8cePnzY55L0FOnUqVOzZs368MMPbTbbZdtQFLVv375JkyZt376dsSMHAIqidu7cOXny5J07d/Z8X8yp2traDz74YMKECQkJCTNnzly9erVer+/VDHLLwmPjs9KDX787TiHltNs9356oX3+03mR1D3BCdQBAV1fX9u3bH3jggbi4uJEjRy5fvjw/P5/52He3sVqtP/744wMPPBAbGzt69Ojly5dfuHCBsat8LpLT6dy5c+d9992XmJg4YsSIF198MS8v77KDGgBw5syZu+6666OPPrqSZrh+AAA6nW7ZsmVPP/10Q0PDldqUlpbOnz//9ddfb2tr85Mkl1JfXz9x4sQ33njDbrf3PE7TtMlk2rx587333hsfHz9mzJi//e1vRUVFzBwSMlhAu80HiPmsRVPCH5mgDRCyms2ulT+XHyluc3oGznQDANTU1CxfvnzFihUulyslJcVisbz11luvvvpqU1NTd7P6+vrly5e/+eabDocjOTnZarW+9dZbL774ol6v97lILS0tL7300ooVK6xWa1JSktPpfPfdd5977rme8iD/meeVlZXt2LEjLy/Pf0qTsVn37t2bnZ1tMpkutXsYN2R9ff3OnTvPnDnT2dnpJ0l6dcoItn79+pqaGovF0kvm0tLSl1566f3336coKiUlpbW19Y033njnnXeam5thpRMIA46hd6SqXp4VEybnO9zUppzGdUfruxwDNOtg6Ojo+Ne//vXcc8/l5+enpKSIxeJvv/126dKlJ0+epKjfNWFnZ+cXX3zx7LPPFhYWpqamikSijRs3Llmy5OTJkz6fh9hstn//+99PPvlkcXFxbGysRCLZtm3bY489dubMmV4Dh6Zpo9H4yy+/HDt2rK2tzU8zIgCA0+nMzs7+6aef9Ho941y/tE1XV9dvv/124MABo9HY/dz8BwAAAGCxWDZt2pSXl2c0GnvePjP3/vjjj19++eWysrLU1FQOh/PVV18tW7YsNzd3AMSDXAkYCeEbAoWcR8ZrAQA7zupNFs/H+6vcJD01STEw2cytVuvWrVuzsrKmTZu2YsUKuVxeX1//8ccf//zzz0lJSa+++iqO41arddOmTfv27Zs+ffobb7yhUqkaGxs//PDDffv2paenM218JY/b7d60adNPP/00c+bMv/71rxqNRq/Xf/jhh3v27GHk4fF4CIK0tbWVlpY2NjZmZWXl5OQg/lkEtNvtpaWlTU1Np0+f3rZtm9frJYjeL6Wjo6OioqKhoeHo0aO//PILs4Ljc0l60dbWVlFR0dLScuDAgSNHjgQGBvZ8BQCAjo6OzZs3Hz9+/N57733ppZfkcnl5eflHH320Y8eOxMTEJUuWsFgsfwsJuSHgEPi0ZCVJgXXH6msN9i0ndTw2Pn+sJmhACmF5vd7jx49/++23ISEhb7311siRIzs7Ozdt2vT1119/9tlnCQkJSqXS4/EcOXJkw4YNSqVy5cqVw4cP7+rq2rRp01dfffXJJ58kJyfL5XJfyUPT9LFjx7788ku1Wv3ZZ5+lpqY6HI5t27Z98skn//znPzdu3KhQKBAEsdvt5eXljY2NZ8+e3bp1q9PpxHHc50uTHo+ntra2vr6+oqJi48aNra2tqampvXpxOp1VVVWNjY0XLlzYtGmTzWYbgCAN5vabm5vz8/NXr16NYRib/T9VRN1u96FDhzZv3hwXF/f666+npaW1t7evX7/+m2+++eabbyIjIxUKBcwaODgAiO9oMTs//Lki87VDsS9mzXw/Z/e5JpvLOwD95uXljRs3TqPRHD9+nDlC0/TPP/8cFRU1bNiwxsZGAEBubu7YsWNDQkKOHTvW3ebXX3+NjIwcNmxYfX29D+UpKSkZNWqUQqE4fPhw98Hs7OzQ0ND09PT8/HzmyP79+zMzM5VKJZfLZeyk3bt30zTtQ0kAAGVlZXPnztVqtQKBAMdxHMeXL1/e2dnZs82JEyemTJmiVqt5PB4jyVdffeV2u30rSS9+/fXXiRMnBgcHczgcDMOUSuU333xDURRzliTJkydPZmZmJiYmnj17ljnu9Xq3bdsWFhY2duzY1tZWv4oHueGwODzbz+im//NEzItZI18//MkvlYZO5wD029LS8vTTT0ul0lWrVtntduZgaWnpnXfeKZFI9u7dCwDQ6/WLFy8Wi8UfffSRy+Vi2lRWVt5xxx18Pn/fvn0+lMdkMi1evFggEPzjH//oPqjT6WbMmCGRSLZv384cKSsru+eee7o1A4IgL7/8cldXlw8lYYR55ZVX4uPjpVIpM2O84447Kioqerapq6t74oknoqKiRCIR0+bxxx9vaWnxrSS9KC8vnz9/flhYmFAoJAiCw+EsXry45+03Nzf46wiiAAAgAElEQVQ/9NBDcrl8zZo1DoeDOZifnz9p0qSQkJCDBw92KyvIAHNj+9soimIW2lks1pUcJEwMLIqil7YBAFw1hgnDsEvdM1dCJeU+NjEMRZH1x+prDLZ1R+tRFJmWrPRrXiUAQH19fV1d3ahRo+Li4piDKIpmZmZGRUVlZ2dXVFSo1eq6urqmpqbExMTExMTuNikpKbGxsadPny4oKAgLC/OVSKWlpc3NzfHx8SNHjuw+mJGRkZSUVFBQUFJSkpaWhiCIVqt96KGHaJq2WCx79uwpLi72lQA9kUqls2fPHjdunNfrPXLkyPHjxy9dClGpVPfcc4/T6XQ4HL/++uu5c+f8IUkvtFrtvHnzXC4XTdPfffddR0dHz7MURVVXV1dVVc2bNy8sLIz56RIEkZ6ertFo8vLympublUrlAMgJuRLMNhcAAEEQVwro7tZRBEFc6tLuGf51WVAUJQiin14NEY91Z6oKQ9EvfqtpbnduP9uEIMiC8Vq/et0AAEajsaioKCQkZPTo0VwulzkeHh6emZmZnZ196tSpOXPmmEymyspKmUw2YcKEbr+ORqMZMWLEyZMnT548OWvWLF+JpNfry8vLeTzezJkzuw8GBwdPmjSJkee+++5DUVQqlc6cOXPUqFEUReXk5Bw8eNBXAvSEy+WOGTNGLpcDAMrLy7dv335pG5FIdPvtt8fHxwMAzp8/v3fvXn9I0gupVDp9+vSUlBSCII4dO3bo0KGeP0UAgNlsLigoiI6OTk9P7/la09PTz507V1BQMGXKlAGQE3IpN7bd1tnZuW7dugMHDkycOPGVV15hVt960tDQ8P7771dWVj7xxBP33ntvrwYkST7wwAPt7e09DzK/XQzDGCX71FNPPfLII/0XKUjMefq2CKeb2nKqscpg++pQHQvHpiYp2Cx/bcNxu92NjY1dXV3h4eE9b1ChUISGhgIAamtrx44d29jYaLFYIiIiukcggiCBgYGRkZE5OTlVVVW+koeiqObmZofDER4eLhAIuo/zeLyIiIjTp0/rdDqSJAmCiIuLi4iIQBCkubm5tLTUT3ZbUFDQI488AgCwWq0Oh+PEiROXtomIiFi0aBEAoL29vbm5eWDsttjY2PDwcARBPB5PdnZ2L7vN4/HU19fbbLawsDA+n999XKlUqlQqt9tdW1ubkZExAHJCroTX6/3111/XrVsXFBT0xhtvRERE9DKw7Hb7F198ceDAgcmTJy9ZsuRSO/uDDz7IysrqeYTRPyiKMmt2Y8eOfe2113qOo74RcolZaSoWgb79Y5nJ6vn+dBOKoo9O0AYI2Vf/42uC+cAbjcbw8PCAgIDuuTGXyw0NDeVyudXV1TRNt7e3t7a2hoSEBAQEdD8lDocTFRXF4/EKCwt9KFJbW1tHR4dcLtdqtd0HcRyPjo5GEKS+vr6rq0sqlSoUigULFgAAnE4nAODo0aM+lKEbPp9/5513Tp8+nabpo0eP/vzzz5e2CQgImDdvHrP1NTAw8Ndff/WHJL0ICgp68MEHaZpGUZQkyV5mK7PRzWg0xsXF9XxlYrE4LCyMxWLV1tb2PeWA+I8b224LCAhISUnZtGnTypUrk5OT77nnnp5602azbdy4cd26dRMmTEhMTORwLjPp1Ov1LS0tl86Du7q6urq6MAy78847/6hUYh7ruTujOWx828nGGoP9n3sqvBSYmabyU143h8PBBLoGBQX1vBEcx7VaLY7jTU1NbrfbYDA4nU7mSHcbDoejUqkQBDEajYwtdf3yuFwug8HgdrvDw8N7vg4URcPDwz0ej8FgcDgcYrGYIAimx15xFb4Fx3HGnO3Dt9EtidVq9Z8kV+r0srhcrtbWVj6fr1AoejbjcDgajYbNZtfX1w+ElJArw2azhw0bhuP4pk2bAgIC3nnnnZ4WNgAgOzv7gw8+CAgIiI2NDQgIuPQK7e3tNTU1l/7+XS5Xe3s7RVEBAQF/NACcy8ZnpwejAPlwX1Vrp2vD8XoPST05OVwm8ovXjSRJg8FgtVrlcnnP20dRVKlU8vn81tZWu93e3t5uNptTU1N7tWHiBEwmk9VqFYlEPpGnvb3dZrPFxsb2CgDt1nXt7e1SqRTDMEYz+HV3NoqizKeHcbte1nWKYRgzncZxHAAwMEFj3bd/WSiK0ul0DodDIpH0fGUYhikUCpFIpNPpPB6PTz4ZkD/Kjf3QMQwbP378gw8++NFHH61atWrUqFEhISHdZy9evPjtt9+qVKpHH300ISHh0oVUgiC2bNnCrKJ2H0RR1GAwfPzxx/v3709PT58+ffo1CCbmsZ6YFIYiyI6zTYYu9/t7K1gENmVYkD/yKnm9XrPZDK6coKijo4Mkya6uLpIke7Vh/sv4oiiK8skgdLvdnZ2dl/3YAAAoirJYLG63+/o7urkhSbKzs5N5Wb1eGfOvyWQaNOEgCIIgCIqiUVFRTz75ZHl5+aZNm+bMmTN58uTusx0dHatWrfJ4PPfcc8/06dMvOzl5+eWXn3zyyV7zRrfbvW3bti+//FIsFt999909HeT9BEPR6SlKkgZfH6ytNzk25TQCBHn6togAge8nSDRNm81ml8t1pQZdXV12u91utzscjss2QFHU6XRaLBaf2G1M3IXL5bqSPrTb7f7bt34z0d7eTpLkZQMAUBQ1m81ut7unSQcZMG5suw1BEKFQ+MADD+Tk5Jw4cWLz5s3PP/88o+bsdvvatWtbWloWLlw4bdq0yzrbUBSNiYnpeQQAYLfbDx48mJubGxER8eqrr3ZHg/1R5CLOwvFagCA/nm1us3o+y6r2kvTUZIXPs5lfug+oF2w2+7LhfT3pfwxNf+RhsViXvRqjSfuWBMLAPKg+Glz2Jw0ZYHAcnzBhwty5c7/66qvPP/88OTlZJpMhCEJR1K5du7Kzs4cPHz5//vzAwMDL/rlarVar1T2PUBR16NChrKwsLpf79NNPz549+9q80RwWPi1ZQdL0+mMNtQb71pxGLoHNH+f7WDcURdlsdh8jmsViMa7lPnas4zjuq83RzMDpo6++/dyQbpgPRx9noRofLG6G5x4VFbVkyRKhUPj999+fP3+eWQs7ePDg/v374+PjH330UcY93h9oms7Kyvr0009pml66dOn06dOvR5sopdyF47X3jQ6R8Ih6o33NkboDhQaby8cZCzkcDrNCykS49zxls9kAAAqFgs1my2QyFotls9l6tqEoyuFwMCG6vtJlPB5PLpczffU6ZbPZCIKQyWRwlnZV2Gy2XC73eDy9XitFUTabjSTJ4ODgQRQP0k1AQMDChQtTU1OPHz++a9cuJjVXSUnJ+vXruVzu448/npyc3P+rVVdXv/POOzU1NXPnzn300UelUuk1CybksmakqJ6cFB4WxHd66a2ndFtONhq7rugYuzZwHJfL5QKBwO129/KyO51OiqJkMplQKBSLxSKRyG6390rZ6nA4KIoSCAQSicRX8gQEBPD5fKvV2ksfOp1OBEGkUqmv+rqJwTBMpVKx2Wy3293rlTmdTo/Ho1Ao4NRxsLgZ7DYcx6dPn37fffeVl5dv3ry5vb29oaHh66+/drvdCxcuHD58eP89SZWVlStXrjQajffff/+DDz54/X57lZT7+MSwh8dpMAxhdpgeLjY63L7MWMjj8UJDQzkcjsFg6DnAnE5nc3MzRVFarZbD4QQHB/P5fGZPQHcbJjYOQZDQ0FBfTZ5YLJZSqeRwOI2Njb1O6XQ6DoejVCr9GtB2c8DhcEJCQiiKMhqNPbN02u12vV7v9XojIyMHUTxITxISEhYvXuz1er/99tuKigqLxbJly5bCwsI777zz3nvv7f/cz2w2r1q1Kjc3d+TIkUuXLu3eR3zNiHisO9NUS6dGqqScDrt3+5nmrSd1bRZfmm4YhgUFBUkkEpPJ1HMlFADQ1tbmdDpDQkKYeaNMJtPr9T3bUBTV0tLidrvDwsJ8ZQRgGCaTyUQikV6v7zV1bGlpQRBEqVQyPlFIH2AYptVqRSKR2WzuWUTB6/UaDAa73a7RaKDbcrC4Gew2BEEEAsFzzz0XERFx5MiRw4cP//DDD+fOnRs3btwjjzzS/+gQs9n89ttvFxUVjR07dunSpWq12idLh3IR5+nbIuaP0WAoWmOwfXmw9kSZyUP6LBKWIIjg4GCZTFZeXt5zgDU2NjY2NrJYrIiICDabHRISIpFIqqqqeupNo9FYVVXFYrHi4+N9JQ+KohqNRiAQVFRUGAyG7uPt7e1lZWV8Pl+r1UIH+1Vhs9lhYWEymayioqLn50en0xkMhsDAQI1GM4jiQXpCEMR99903e/bs4uLinTt3Hj16dP/+/VKp9JVXXrnsdoTL4vF41q1bt2PHjpCQkBdeeCEtLc0nqbCFXGJmmurlWbFCDtFmcX9/qun7U02d9svk6782GG+9Wq1uamrS6/XdLreurq7KykqHwxEXF4eiaEBAgEqlam5ubm1t7XaDOZ3O0tJSm82WmprqK3kQBJHL5YGBgSaTqbS0tPsgSZLMjvWYmJhrCBm81UBRVC6Xh4aGMrtKu3d0tbe3V1dXkyQZHR0Nk+4OFjfP5zMqKuqVV17p7Ox87bXXPv74Yy6X+/e//z0oKKiff261WleuXLlnz56YmJgVK1YkJib60LYQcokXZ8Y8OSVMwCFqjfa3d5ftL2j1lemGomhiYmJGRsaZM2f279/PrFYwecgqKiomT56clpaGomhSUlJycnJBQcFPP/3kcrkoinI6nfv376+srBw9evSIESN8Igwjz4gRI9LS0qqrq3fs2MGslTidzt27dxcXFycnJ48ZMwYO+KuC43hSUtKIESOOHz9+6tQp5pVZLJYDBw7U1NTMmTPHh/n2INcPn89/7bXXQkJCvv766z//+c91dXXLly9PSkrq5597PJ7t27d/9tlnFEW9+eabs2fP9mExDC4Ln5UevOK+hJBArtnhWXu0bvXh+narb/YGoSgaEhIyefLktra2H3/8kSnQ5PF4zp49e+LECaVSOXPmTBRF1Wr1mDFjnE7nd999ZzKZmDZnzpzJzs4OCAjwYfI2BEHCwsKmTJmC4/j69estFgtJkh6P59y5c3v37pVIJLNnz4b656qgKKpQKKZNm1ZVVbV3717mtbrd7nPnzuXk5CQlJU2cOBFOvweLm8fPyWKx7rjjjuPHj2/ZsgXH8ZdeeikjI6Of49Nut2/dunXz5s1isfitt94aM2aMb2VDUVTEYz0+MRwAZOfZZpPFveqXSjaBThmm8MkO05CQkPvvv7+4uPjjjz9GEESr1ZaUlKxdu5bH4z3zzDPMZu/w8PD58+eXl5d/9tlnNE1HRkaWl5evWbOGw+E899xzvg04k8vlTz31VElJyRdffOH1euPj46urq1evXq1QKC6bxYrJAY38J3mVnwAA0DTdXY/hSm0GQJJLYaTqGY6DoqhWq7377rtLSkpWrlxps9lCQkLy8/O/++47tVr92GOPQZ/BUCMmJmbx4sVvvvlme3v77Nmz582b10+HmdfrzcnJ+fzzzzs6Op599tkFCxb4/IuIYej0FKWXolcfrmswObacbMBR5Knbwn2yw1QkEs2cOTMnJ2fPnj1MClmj0bh161aDwfDcc88xWdPEYvHs2bPPnDnzyy+/KBSKKVOmtLW1bdmypaWlZdmyZVFRUdcvRjccDueuu+46duzYvn373n333YkTJ1oslq1bt5pMpj/96U+X+vb6oxl8AtNR3/pnYCTpxaX6B0EQkUg0a9as7OzsHTt2cLnc8ePH6/X6b7/91mw2/+lPf9JqtdD8HSzwFStWDLYMPoMxPk6cOKFWq994441+LnQyhfM++OADo9H4wgsvLFq0yE/TCD6HiFIISYquN9qNVk91qy1AwA4N5LGvO68bjuMajUYoFFZXV+/atevAgQOnTp0KCgp68cUX586dy0zcURQNCwsTi8WVlZU//fQT00Ymk73wwgt33XWXzytdhoWFSaXSwsLCrKysX3/99fjx41KpdNmyZfPmzbu0L5vNdvHixa6urrvvvjsyMtJP6sDj8TDlUMeMGTNq1KjLxtM4nc7i4mKDwXDHHXcwqbn8IUkvSJI8ceKE1+udPHlyYmJi9+2zWKywsDAej1dWVrZ79+4DBw6cPXtWo9E8//zzU6dOhTGCQw0cx6VS6ZkzZ+x2+3PPPTd69Oj+BADRNF1RUfHhhx+ePn161qxZb7755vXsRegDAse0Mr6YR9S1OUxWT0WLFUPRSIXAJzvcZTKZSqVqbW1lxvuhQ4fcbvdDDz301FNPBQYGMj9puVweEhJiMBiysrL2799/+PBhp9P54IMPLlq0qGdmV58gl8ujoqJ0Ot3hw4f379//22+/2Wy2u++++4UXXrj08ZIkWV5eXlNTM3r06CtphuuHpmm9Xp+XlxcVFXXbbbdddgGdoqi6urri4uK0tLTx48f3P9/ydVJSUlJdXZ2ZmTlx4sRuxYJhmFwuVyqVOp0uKysrKyvr8OHDKIo+8cQTCxcu9Pkrg/Qf9GZKeQwAOHLkyNKlSxUKxYYNG2JiYq76w6JpurS09LXXXjt06ND999//7rvvhoaG+lXI1k7X5pyGrSd1DjcVrRIumhI+LUXpE9Vpt9tLSkpyc3PNZnNQUFBKSkpKSkqvke90OouKis6fP282m+VyOdOGz+f7YwS6XK4LFy4UFhaaTCaZTJaUlJSZmXlZxx4T5mIwGDIyMpRKpZ/UgdfrZQo8h4WFRUVFXdZUdbvdlZWVOp0uMTExNDR0wOy2goKCjo6OhISE0NDQXrdvsViKi4vz8vIsFotSqUxPT09ISIAbcocmtbW1zz77bHFx8eeffz5nzpyrToeYYgPvvffe6tWrk5OT33///TFjxvj1V2d1erMuGtYcqWs0OQKE7IdGh84fp1VKfGCpeDyempqavLy8+vp6gUCQkJCQkZEhl8t7ToNJkqyurs7Ly6urqxMIBMOGDUtPT+/VxlcAACoqKnJzc3U6HZfLjY+Pz8zMvGwpdJIk6+vrq6qqwsLCYmJifD6JZaBpuq2trbCwUCKRDBs2TCgUXtqGKTZTUlISHBwcHx8/YD71mpqaysrK0NDQ+Pj4XrfvcrlqamrOnz+v0+lEIlFSUlJaWlq3LQ4ZFG5Ouy0oKGjDhg2xsbF9/7YAAB0dHX/729++++670aNHr1y5Mj09fQA+1e1W9/pj9euPNwAAopXCJVMjpyUpuL5YMGUqrtI0zZRVvaw27E8bX9HPvroXBS5NM+tbYZh/++hlYCTpo9MrSeXxeAAAOI77MNMexOfU1tY+88wzJSUln376aX/c2DRNr1mz5o033ggMDHznnXfuuuuuAfhU213kb0WGVfurDJ1umYj90BjNgnEauY/yunm9XoqimLKqV9KlJEkyOcD9ncoRAECSJCNPH331DI240hj0iTBX7WVgJLlsv3132v1aYfbNocDNE992DQAANmzYsGnTpsjIyJdffjk1NRXDsEsNWZ8PHpmIs2RqpNND/XCmqcpg+9eBahxDpyYFsYnrNd2YHJjX38ZX9LOvgdFQ/THFBlJX9r/T7lI5kJsJAMCZM2feeecdDMP+9Kc/zZ07l8PhXHYi7dvfpIBLzExXYRjyj13lJqtn68lGFEUenaCV8C+fLvsPwWKxrmqtDljmW8bOuKo8AzNJ66f+GQBJLttv35325zFCBoybzW4D/6E/jQ8ePPj2228DAEaNGoWiaE5OzqWXioqKYop/+xYxj/X8ndF8DvH9aV2d0fHuT+UkRc9IVV1/rBsEAhlE+q+Cqqurly9fbjAYxo0bFxoaeubMmV7XoWk6KCgoMTHR51YOh8Bnp6sRgH6aVd3c4fzmSL3TQz19W0Sg38rPQyAQX3ET2m39d5n88ssvdrsdw7CdO3fu3r37UlULAPj73//+wgsv+EFSRMJnPzYxDCDgx7PNxi73qv1VBI5OTgji+7oQFgQCGTDQ/3DVlnl5eRUVFQCAvLy8pUuXXlrdnKbpmTNnfv311z4p3NkLHGNqmNJrjtTVGx1bTupYOPb4pDBoukEgQ5ybzUTQaDQLFiwQiUT92ZM1fvx4Jkskswv6sm18mJD2UoLEnIXjtQhAdpxt1ptd/8qqdnvB9BTf1zCFQCADgFgsnjNnzvDhw6Oioq5qukVHRz/xxBMOh+PSFAzdpKSk+G99isfG70hR0jRYd6yhzmjfcrIRQ5EF431fwxQCgfiQm2pfAoIgTIpFBEG4XO5VZ71ut9vr9fZ9QTab7e9oMEOna1N2w5ZTOoebmpsZ/NKsWJUUpuaCQG48aJp2u900TXM4HBzH+9Y/Xq/X7b5K8luCIDgcjl8DnqxOb1ahYfXhujqDPSlU/M6DiSlaWL4TAhm63Gx+nT8U8crhcIZCuLdSyn1ySriHpAsau+4erg4QwPBPCOSGBMMwJs11fxgisd4iHmtmmgpFkfVH6x8aGxqpGKCcYRAI5Nq42fxtNy5Wh8dsJ9WBXAKHWxMgEMiA4iHppg5nSACXwxqInIUQCOSagXYbBAKBQCAQyI0BdO1AIBAIBAKB3BjcbPFtNxOtrYbq6iocx4eIRxRFUAQd8IrrfYKiKAIQgAwViVAEHTrCIAiCYZg6WK3R9K6dBYFcFYfDUVhYRIPLb3QdFIbceB9q8iAogg4lDQ0QqVTiv9JhtyzQbhu6XLhw4aOPV/H5vCEzDFEMQ6+UsGBQYOpbDBE9haIIiqI0PSSEYSBYxH333vvwww/jOLTbIH+Mtra2le+/7/WSgy3IfxmC4x2AoTKVZeRBkCGkommazszMWP7yyxIJtNt8CbTbhi42m6211TB2zKjo6OihoBnq6hsKCgoSExOjoqJwbJDtABRFa+vqCgouJiTEx8fFDa4wCIJgGF5XV3cuNzcxMTExcRgYbNWJYXhLa8ux4ycsFuvgSgK5QfF4vXp9i1qtHp6ZMQBVm68CilittqNHjykUQelp6Vzu5QuCDSSdnZ2nTp+RSCTDRwznDFTlwCuBYlinufPkqVN8Pn/ihAnYENDPDqfrt99+M7WZho4dedMA7bahC4qiPB739ttvv+eeuwdbFoQkyYOHDpWXlU2bevucObOHgt97375fKsorp0yePO/ee1nswZfn118PnM/Lmzhh/MKFjwy2LAiCIBfy848cPQaLQEOuDRRFMQxLSU5+/vnnWazB/1Lo9S3nzuUmDktcvPjpwMCAwRYHKS0traisjIqKenrRUzKZbLDFQSqrqkrLyoJVquefXzYw5V/7xmw2nzt3DhmEgs83P4P/diF9gCIIQRBc7uCn4SVJEsNwBEUxDGOz2UMh7x3BYjGfFg6X4+/cyP0Bx3EUQXAcHwrvC0GQwfeRQG58MAwbIiqIIHAEQVAUZbNZQ0EeFouNohiGomw2e2jIw2JSzXO53KFgtzHyDLYUNydwLg6BQCAQCARyYzD4VjnkeqBogCAINsR80RQNUBT5PUx2sKEBQEB30G6P4zSgEQRDEWwApWTe16BHB0IgvoLZJ3BpTUEAAM2MO2SAFAEACIIAGiAoglwa4EUDAACCDaxWAgBQTKeXPASaBgBB0IHVP8xLQa6sggblKUH+KNBuu1HxkNTpqo7sMhNAkIyIgLGxgQGCwV8rRBCkzmj/Jb91fJwsWSvG0UF26Fqd3kPFRoWYMzpG1r2lssvuya3rzKs1W5xktFIweViQVs7D/RwH1mHznK3uuFBvdnvpJI1kfFygOoDv1x4hkAHgSEmbzUVOT1byOL+vy9M0aOpwHittq2qxBYrYkxOCUsMl/rZOPCRd2Nh1pqq9tdMtF7EnJMiTQsVM7QeSoitarEdLTa2driil8I4UhTqgv7XIrhkvSV/UdeVWdzSbXVIBa3ysbERUAKNkHB4yv67zTFWH2e6JUAjGx8mjVALCz/rH5aXKm63najoaTU4Rj7gtMSg1TMom/qfTTrsn66KBw8KmJSuE3MGPGIZcCbhOekPiIaldufoPfq7UdTibzc61R2q3ntR12j2DLRdisrq/P6375mhdvck+2Pu9EBqAIp1lc05jabO1e/eZyer+8lDtJ/ur9GaX2e7eda75w32VVa02v+bv6LR7tp1qXHukrqndaXF4N55oWLW/usHk8F+PEMgA0G51rztaf6a6w0P9vmcQAFBtsP1jd/mu3OZOhze/vvONHSXnajr8qg3cJLU3r+Vv20sKG7usLu+pyvZ3d5efrDSRFE3RoKC+86N9lacq261O795c/Yc/VzSY7H6UBkFoALIuGv6+o/RcjdnupnKrzX/bUXKizAQA4iaprALDJ/urKlttFieZddHwwd7Ki/WdlD/1j4ekDhcb//FT+anKDpubLGzs+vuO0gMXW70k1bPNyYr2zw9Un67scHvhDtAhDfS33XgAAAobu74/pbs9MWjJ7ZEkTe/O1f94Th8bLJwyLGiwypsCANxe+lhp2+HiNmqwTTaSoo+Wtv2S31raZDF0ubC0349TNDhUbDxSYnxqcsSczGAEILm1HZ/sr953ofWZqXwB1y/DgaZBmd56qMg4JyP4npEhXALLqWz/eF/VoSLDgnFaLhvuHoDcYAAALtZ37r3QUthoKW6yRCn/W4qepMDG441tVvdrd8cnayQWh+etXeUbjzckh0r8NL4AAGVNlm+O1o2KCnxpVgyLwHTtjk/2V2043pgZGej2UN+fbuKw8L/eFaOR8StarH/ZVvzjWf2SqRECjr8+f3qz69Os6jExAcvuiJbwWEaL+6N9lf86UJOilRgt7j3n9UkaybPTIoVcokxv/Whf5d68lrAggVzkr81erZ3uDccaIhX8P02PUkq4Fpf3n7vLt5xsjFeLYoJFCILQNF3ZYt9yUtfpIAd7jQRydeAruvGgaHChrpOF43Mz1XwOLuGzpwwLChKx82rNLi919b/3DwAgFxs7fys0jo+ThQYMcq5gABC3lyZwVCvjS/j/XT62Or2VLZDewMkAACAASURBVNZIhWBKYpCAQwi4RGZEYEywqMZgc5P+mmICBDHbvF4aiVIJJTwWl43HqkRBYo7Z7iWHUpJeCKT/eCiaokGEgq8U/094hr7TearadP/okLQwiYekhDzWn++Mvm9UKOG3zM80ADVGOwDg4XGhYj6Lx8Zjg0WjogObO5xmm8fQ5a5qtU1NVEQqBDw2Hh8smpasyKszt3a6/CQPgiBlzVaXh7wnU62UcLlsXCvnz0hT1RnterOzy0F2Ob2xwUIJn8VjEyGB3DA53+oiPf5U3VWtNpeXuj1JERYk4LLxIBFnznC1ocvd8p+H0GH3bjxeHxzAHR0VgCEwsm2oA/1tNx42N6nvcMpFLDGfYKJHA4VslZTb0ulyk7RwkKQyWtybc3TxalFmpDSvzjxIUvwOi8BmZwTPzgjOrzev3FPZbUQSODo5PghBETHv9+iNLoe3y+6RClj+2yqAIkiYnK+Wco+WtrEJjMfCTlZ2OL1UslbMZcGJE+TGA0XRkdGykdEyBIBHvzrfc42vqtXm9tJyIXt/QWul3ibls9IjpOPj5RzCXz91gCCxKtH/TY8Klv4etWZ3k21WN4+NsXBM1+5AEEQl5TILEQSOxqiE2eWmdpsnUgH8FH0fEsj988zYSOXvytjtpZraHQIOzmXhEgE7Xi0+WdEeHMAN5LPLW6wNJsf0ZKWY78d4spAA7uLbI5K1Eua/NA0aTQ42gTHOfpeH2nm22eLyLpoS8f1p3aCvlkCuCrTbbjzsLrLL6ZXwWN2hrDiGSgWs1k6XyzM4/jaHm9x6stFL0fePDjF0uYeQF+l/awcKOMT4eDlTZ5WiaV27c8eZ5pZO18x0VXdUtc/BMDQsiD8iOmBTdkNJk0XAxsv0trQwSYJaPFiL2hCIT7h0pDe1OxGA7M7Vc9k4l4WXt1izCg3PTIu8bVgQ7p9fO4FhSRpxokaMIghNA7Pd81uR4USZaWyMXMQjWswuLhvvXhJFUVTIJXAM7XJ4AUD8tFkiXi2KDxYxRqHZ7jle1rYrt3lqkjIkkMcmsEkJ8lX7qz7ZXx0k4tS12aUCVrJWzGf78VscqxbFqkXMvVqc3tNVHTvPNg2PDIgI4tM0yK4wHSk2LJsRrZXzvRSAOmnoA+22Gw8aIDRACPy/O7RQFCUwjPrPHu8BxkvSR0razlabl8+JDZXxjV1uBEGIIZnqojtbgcNNHiwy/JzXYrJ55w5XT4yXs/2mriga1Bpt56rNscGisTEyCY/QyLuKGruOl7XNGxnC91uQDQQy8Lg8dJfTK+azFo4Pk4vZHTbvFweq1x+tT9FIlFJ/JadlhjVFg3PVHXvz9EW6rrRw6YNjQjkE5qUAhqI904IwetOv+wAwFEVQxO2lihotey7o8+rMiaHiJ6eE8zlEQ5s9u7xNJmSPj5erA7jVrfaz1e2Hi9rC5Pwgsb+eD3PLbi9V1mzdk6c/XdmRGiZ+dIJWJuRUtlh3nm2emqwaFS3rsnswFIEFVoY+8Jtx48ElcB4Lt7u83aqHpoHN5eWxiUFZd2tsd2483kACUNpkKWmy6NodFid5tLTNS4GpyYruFcmhQ2O749tjDQcKWzMiAv48KTwjXCrg4P7LV+Qh6VOV7R1Wz59nRWdEBOAYOiZG9uWhmiOlxnGxsu7FFAjkJkDEJdg4Nj1FOSxUhKGoUsydmab6+JeqaoPdf3YbgiAuL7X9dNPGEw0yEfvRiWGTEoLkIg5NA6mA8Hgpl5f8b0uSogEi4hJ+jeNyeakfTjV9f0Yn5BCPjNNOSVSoJBySooubLMVNlkVTIqYkBnEI3OEmpXziwEXD7UlBMiHHf3VFLU7vvgstW0/qCBybP04zO10VIGC7vNSu3ObyZmu8WrTtlM7mJBvbnDiO/Hi2eWqKIlIBVdMQBdptvoSmafTSBJQ9AAAAAPpuc1UkApZKys2tNTs9FHM1u5ts7XQFiThMvqIBhqRpmZjd6fDuL2hFEMTuJh1uMr/BgqHY+DjZkLLbAAC6dufKvRW1Rvvf7kmYkCDnsXF/Z5YiKbrV7JKL2aGBfB4bRxAkUMiKVYlqDA6Lk7zqn0Mg/aQ72U3fKqjvBtdJiJyLY6iAQzDDCkURDgtDEIT0Z3Fxh5tce6Tuh9NNj07UzhsZEijkMJljURQJDxK4Sbrd6qEBwFCUoujmdheOIjIhG/Wb4UZSYMOx+i0ndfeNDLl/dIhKymPk8ZB0m8XNYxNhcr6QQ6AoysJZkQohhhrbbR4aAD/tCXC6yR1nmrad0k1PVj40VqMO+D3aj6IBh40HB3DP1ZhpAEiKbu1yIQhyrLwtUSOGdtuQBdptPoCm6a6urtbW1o6ODhaLJZfLQ0JCelXwpCjKbDa3tLR0dnbyeDyFQqFWq6+tihybwBI1kqOlbedqOuQiFYaiF+o7jRbP5GEKzmD42yIVgn8+mPS78w9FCxs6P9hX+fBYzZyMYAlvkH9gADAZwH//nnlJ+rdCQ53R/srs2GSt2OGmHG4KQRA2gYm4hJ8muwSOqgJ4BY1dtW02pYTDIrAOu7faYBfziADBEDJqITcuTqezubnZZDLRNB0YGBgcHCwWi3saZwAAm83W0tJiMplQFJXL5Wq1WiAQ9HHNfkL/b3hGXLBYKeEeKzHGBQvFXMLiIk9WtEv5rEiFD/q6kgAF9Z0/57UsGKe9b1QoAEiHzYMgCIYiEj4rNJAXLOXl1prTI6QKMUff6TpZYYpXixRijv/mazUGG2O0LRivQRC0Wx4+B1eIOQ43WW2wRSoEfA7hcJN1bXaCQJVSnv+cbQ3tjp/O66cmKR8ep+GwcLPdiyAIhqECDv70lIhHJ4QxUcDtVvcnv1ZzWdjzd0arpX5PTQy5ZqDd5gMaGho2bNhw6NAho9GIYVhMTMzjjz8+a9YsPv/3hPgAgJKSkg0bNuTk5JjNZhaLlZiYuHjx4smTJ19bQfSMcElmRMAPp5vMdi+GIicr2sMV/JFRAf4L0uoDFo4FCv97F1I+i4WjUj4h5hF+ikTuPyiK4D1qtrTbvOUtVooGx8tNJyvbmYNeko5Xi+4aHizwT4pwDoGPiQk8W92+OVtXa7CLeayqVltpk2XeKLVS4q+MTZBbB5vN9sMPP/zwww/19fU0TQcHB8+YMWPRokVKpbK7TUdHx4YNG/bt29fU1ISiqFarveeeex555BGpVHqdveMo2tNjLRex7x4e/POFFgCQCIWgxmA/Vdm+aEp4sN8WSb0kXaq3Or1UfZv960O1zByNpICYRywYr5GL2NNTFDvONq0/Vh+lEBY0dNrd5J1pKqk/q8vk1ZmdHqqh3bHmSB3jZ6QBwmfjD44JTQwVJ4SIfjjd3GJ2KcQcQ5f7VFX7iMgAjYznP8f/xYaudpu30eT47kQDBRh5gJjHmpWuig0WdTcDAPDYOJeFMemK/CQM5PqBdtv10tXV9f777+/atSsxMfH++++3Wq2HDh36+9//TpLk/fffz3jUWltbV6xYkZOTM2rUqBkzZhgMhv379+t0unfeeee22267Bq+bTMR5fFLYnjz9maoOAJA4tWhWuipUxhsKReXkIvastOCwIMEQkAWRi9h3pKji1EJGJxI4khEuDfyPymYEBDiKYyjit0UTDEPj1KKlUyOPlZpya80eEqgknAXjNJOGBXH9uYkMcivgdru3b9/+9ttvC4XCO++8k8vlnjp16tNPP3U6na+88opYLEYQxOFwrFmz5rPPPgsLC7v77rtpmj5y5Mh7771HUdTixYt5vOvyrExNUkgELDbx+/AhMPSu4Wo+lzhT1VHRYhNw8ccnht2ZpvLr1ukwOX9uRjANEKbiJ4IgKIIwARBcNjEtWYGgSE55e1WLQSHhPDstanhkgP+cWwiCBEu580aGoCgCAMLkP6ERBMdRFEFCZPynp0T8VmSs0FvP13bKROw7UpRTkxR+db0rJJxZaSrmyTAvigYIjqG9LEUuCxsXK2Ph6KDE20D6D/xsXC/79+/fsWNHZmbme++9FxMT4/F4Jk2atGTJktWrV6ekpCQmJpIkuX379kOHDs2aNevNN98MCQlxOBzJycl/+ctf1qxZExcXFxYWdg39auX8xyaGMZs3A4VsCZ81RKqVqwN488dquGxsIOslXwlVAG/eqBD273nukAABe3ZGsJcESI/0IAAgbBbG8+f8ksvCh0cGxqhEnQ4vSdEiHiETsNlQOUKum6Kion//+98IgvzjH/+YOHEiQRCVlZXLli377rvvRowYMWfOHAzDTp8+vXbtWpVK9cEHH6SmpgIAZsyY8X//939r167NyMiYMGHCNfeOouhdw9UYhnR/6VEUDRJz7h0RMiFO7vRQXDauFHP86rxhEdjYWFlmRADokXgMIAiGomIegSCIVMCenR48KirQ6aVEXEIh5vg7/86o6MAUrRT5nxxECIqiIi6BY2hMsEgl5XbYvC6S4rNxmZDt703lI6MCUzSXkUf4vxUsBFzWjFQliiJ86Gwb2kC77bro7Oz86aefvF7v3XffnZ6ejmEYgiBz587dvHnzqVOnsrOzhw0bZjKZtmzZwuVyH3744bi4OBRFRSLRwoULv/nmm4KCgosXL2o0Guya9l6LeawhFfXPwCIwqd9ybP5RWDgm4f9XGALHxLzBkQ3H0EAhu+eCMgRynXg8nuPHj9fU1MyZM2fmzP9n777j4yjOxoHPzO5e73e6U+/Vcq9gXJFtiG16SUIxLfQUSEjILyQvCSGkvAkQkpA3DgmEUGJMsQ0u2JbBvVdZttV710nX25b5/XGgyHIBWzrtnXm+f+QT7+1xj/ZuZ5+deWZ2cbSmdsqUKbfddtsPf/jDVatWLViwgOO41atXd3R03HPPPVdccUW0d3/+/PmLFi16/fXXy8vLp06detFdbhijMxeMxRirFUymTTPMv+5LIhhrlaz2vBUHoxkPQkijZDXnjUev5vSj2HR/4fGJYggezajARYuX62uCamxsPHbsmNlsnj179kDupVQqFyxY4PV6KysrvV5vTU1NS0tLSkrKZZddNjCOqdPpFi1a1N3dXVFREQ6H5fsLAACJyuPxHDhwwO/3DyRtCCFCyMKFCwkhJ06caG9v7+rqqqioEEVx0aJFAyUZHMddffXV4XD44MGDTqdTvr8AAHDBoL9tWHp6enw+n8PhSE9PH7w9NTWVENLS0tLX19fQ0BAOhwsKClSq/1bmYozz8vJ8Pl9LS0s4HB5miQkA4CvI5/N1dnZSSvPz8wdvN5lMaWlpHo+nra1No9H09vZaLBar1Tp4n7y8PJVK1dfX5/F4RjdqAMCwQH/bsPT39/M8r9VqjUbj4O1ms1mn03k8Hp/P19PTIwiC3W4fPHUUY+xwOCilbrc7EAiMeuAAgIQXbT1Ylh08dRQhpFKprFZrKBTq7+/v7+8PhUI2m23Iqh/RFikYDELeBkBigbxtWILBYHSt3SEFatGVdXme53ne7/dLkkQIGTLZM/qWUCgUiURGNWgAwCUhFArxPH/W9ocQIghCKBQKhUKCIJy51nf0nzzPh0KhUQ0aADA8kLcNi1KpPM+UAoZhWJZVqVRnXZ4jOvtJoVBc3Oq7AICvuGjrQQetLD2AUkoIUSgUCoWCYc45PZBhmItbQhIAIBfI24bFYrFwHBcKhXw+3+DtXq83EAgYDAadTme32zmOczqdPM8P7EAp7evrQwgZjUadDh4nAgC4YCaTSaPRiKIYbUwGhMPh6HNZLBaL2WxWqVRutzsYDA7eJ1rjodFohtR4AADiHORtw5KUlKRWq9vb22tqagZvr6+vj0Qi6enpJpMpOztboVAcP37c6/UO7EApraio0Gq1Zz4RCwAAvozobSGl9OjRo4O39/T0NDQ0GAyGlJSU5ORkq9Xa2dnZ3t4+eJ+Kigq/3282m6Nr8wIAEgXkbcOSlZU1btw4t9t95MgR6fMHJ4fD4b179+r1+tLSUpPJVFhYmJaW1tPTc/z48YE3+ny+vXv32u32sWPHwjgFAOAiGAyGyZMna7XaXbt2DZTJUkr37t1LKS0qKkpPT09LSystLSWE7N27VxTF6D6CIOzatUupVE6cOHHIPFMAQJyDvG1YzGbz0qVLEULvvffeqVOnBEEIBoPl5eXl5eVFRUUzZ86MPsL5pptucrlcb775ZktLiyiKPp/v/fffP3r06Lhx4yZNmnSe6hMAADgXpVI5d+7c9PT0jRs3bt26NToF4cSJE6+//rrVar3mmms0Gg3HcYsXL7ZarStWrDh8+DDP85FIZM+ePR999FFaWlpZWdnAY5QBAAkBKuKHBWO8dOnS8vLyDz/88Mc//vGMGTM8Hs/mzZs5jrv77rtLSkoQQgqF4pvf/OamTZvWrFkTDofHjx/f2dm5du3arKyse+65JzMzU+4/AgCQqCZMmHD//fc/++yzTz311IIFCzQaza5du/bv33///feXlZVFZ03NmjXr9ttv/+tf//rjH/949uzZoih+8sknbW1tP/7xj6dPny73XwAAuDCQtw1XUlLS008/bTaby8vL9+zZQwjJycl5+umnb7311oGFdrOzs//whz/88Y9/3L1796ZNmxQKRXFx8SOPPDJ4BXMAALhQGo3m7rvvFkVxxYoV//znPyVJcjgcDz744A9/+MOBAVCTyfT973+fYZj169e//PLLGOPU1NQf/vCHDzzwAEyKAiDhQNIwAvLy8p599tkHH3ywsbFRqVSWlJTYbLYhT0eYOHHiCy+80NjY2NraajAYioqKrFYrVLYBAIbJZDI98sgjN910U3V1Nc/zeXl5qamper1+8D4Oh+MnP/nJvffeW1NTQwgpLCx0OBxDVuIFACQEyNtGACHEaDQajcaxY8eeZx+LxWKxWCZPnjyasQEALnlqtTo7Ozs7O/tcO2CM9Xq9Xq8vKCgYxbgAACMP5iUAAAAAACQGyNsAAAAAABID5G0AAAAAAIkB8jYAAAAAgMQAeRsAAAAAQGKAvA0AAAAAIDFA3gYAAAAAkBggbwMAAAAASAyQtwEAAAAAJAbI2wAAAAAAEgPkbQAAAAAAiQHyNgAAAACAxAB5GwAAAABAYmDlDgAkDEIwQogQgjGWO5b/Ijhe7j0wxhSh+Dk4hFzwkRElSik9/z4YI4Jx/PyZIKYwxhfxQ4oFQhiEEI63317cBBM9LPFzcC7iZyNJVPqi9gchxJA4+w2MOsjb4pooSS2trYcOH0Zf4tccUxShpqYmSZJaWlqOHj3GMHI35Rg3NzeLktja1lpRUSH7aUwYprmlGSHU3t5+5MhRSRLljYdh2draWnKBh2V3tfOTEz0InfNdvCCVZuhvmZEu9/EGo8TZ5zxy9AjHcTI3QRh3d3eLotjX33e8slKv18seT1Njczgc6u93nTh5Ut/SImcwCBFCmltaI5GI1+s9fOQII3eqjQlxu92RSOSC3lXX7fvoUKc3JOBzNEGCJNkNylsvT7PplLK3+TLCX3h7DeSy8t13f/7zX1gsVqVSIfu3hDGKRCKhUFihVCoVCpmjGRyPQqFSKePg+OBIJBIMBpVKpUqlkv20whjzPB8Kh+9etuyBB+7/knn28s31L26opfTsTSLBKBgRl0xKfnHZhGjnK7iE1dbV3XHHMoyxRqPGGMudJiFBkAIBP8uyKpWKEPnjEUXJ7/czDKNWq2XPITDGoigEAgFMiFajlTcYhBDGSJKo2+2+bMaMX/3qlyaT6cu8a+vJnv9550SnO8ycrXnBGPGCWJCi++NdE/PsWtmPuYygvy2OUUQIU1hQkJOTQ5HciQlFzc3NxysrC/Lzs7OzZB86wQg3NTUdr6zMy83Nz88/dw/RKCGENDc3Hzx4OCc7u7ikWJIk2ePp7urauWv3Bb1LrWSsWgU922CLSCV/WEToPJ1x4BLkcDgmThjPsDJfKTBCXp9/x44dNptt/LixSqVS7gYRud3uAwcO6PWGiRMnKhScvMFgjN0u9959+zRqzcyZl2O5b6swxqFgaMsnn1zQHayCISYtx4v0zLyNIhoIi7woQgOEIG+LcwqFYtGiBTfddJPcgSBBENZv+LiqunrhgrLrr79OEQddbmvWfFhdUzN/3ryvf+NWjpO53UQIffTR2oMHD8+dO+fuu++SOxaEENp/4MAnW7dd0FsWjU8en2U8c5ACY9TY4395Y/1Jv/erfJv71UPHjxv3xBNPqFRKuSNBLS2tBw8eHFMy5tvfftRqtcodDqqsrKyrq83NzXv0kYdsNpvc4aBTVVVV1dUpySk/+tETrNx5NkLI6XQePHTwy9SrDShNN/z6G2N5kZ7ZxvjDwr+2NX18tCve6htlIf+3C84DI0QIEw8nIUKIYZjo/zJMXIREGAYjHEfxEAYjSgiJh2DQ59/XBXEYlQ7jOa/QKgUjeycHGF04+nuOh580yzIIIUJw/JzvCBGCSZzEwzBMNKeJm++LvdC+MYOGG6M5+x14rzds1iqg/YmSu7ocJI5oj7fslVtDyD+CHK/i7ZsCCSpOfkhxEsYZ4jMq+Y349wUHegDkbQAAAAAAiUH+3lQwHIGwUH68J9mknJxjPuscnFGzv67vRJsXIYQRkiSq5JgrxyU5DCoZQ0II+UP8Jyd6bXrFtDzLwPEJRIR9tX17avsJRuMyjZflW8zamJfr+UP8oUb3/ro+QaTT8y0zCixq7oLHMQGIN9urej1+/sqxdrWCQQgda3IfbOg/rS3CSMmRCZnG4lRDTCOp7fJuO9nb1heyG1TzS225di17+jTq7ad6+/384onJLBPzplKUaEOPf1e1s6k3YNEqykqTilL10cosUZIqW707q5x9/vC4dMPMQpvNEPPyQVGizb2B3TV9dV0+o5q9akJyUao++lJTj39PbV+IF6OFrZTSidnmsRkGeS8o4Dwgb0tIlFJepLwoHW5w/WVT3TcuT5+UbZJxog2l9N/bm7dXOVOMSoqQIEoGNTc+yyhX3kYpFUQaFqQD9a6/ldcvnpg8NdccPT5Ob/hv5Q3lx7tTzCpRopuOdU/PNz+8MC/NrIpRvSultN8f+ff2lg1HO40ajmPJpuNdZaWOBxfkmjQsFNmCRCSIUkSk/pDwp/V1mVbVFcXWaN5W2eZ+Y0czx3y2dCAh2B3gQ7z41HXFscvbIry45nDn8vJ6i5bjWGZ3Td+6Ix2PfS1/TrGNECxKNCJIXe7QXzfVJxuVX5vgiHVTKUl03eGOv2ys16tZjZJxeiPv72v76Q1Fc8fYw7y49lDnv3Y0KVlGxZFdVX2fnuh9ZFFeniOGC1tEeHHz8e6/f9LIYKxRMq5A5KMjXd9ZlHv1BAfHMrtq+n67usphUhGMKEUSpRxLStL0kLfFLcjbEhIvSNurnLurnXtqnX2+iEohc8+NLyR0e8K3XpZ+3ZRkiSJKEUNwdpJGrngEie6p7Suv7D7S6G5xBhUcE13WXKJ0+6ne8sqe267IWDY7KyJKH+xrf2tn897avqWTk5VsTA6jKNKD9a5NFV3XT0v9xswMrYL5YH/769uaStL0iyclc7G/9QdgZFFKqzq8myu6jza7j7d6ilN15PNMqKzUPjbdOJCBBMLiXzbW69TM9HxLzIJBJ9u9//ykcXKO+YklBWatoqbT+/uPav61rWlStkmvYqs7fB8f6zrS6Drc5LppWlqMwhis3RX888b6CZmGxxYXpJrV9V2+331U/fLmhglZpqae4Mq9rZOyTA8vzLXqFTurnMvLGz4+1rVsdqZeHatJ8R3u8GvbmrKT1N+7uiDTpunoDz63quqtXS0l6fpcu67LFSpK1f3sxpLozhQhh0E5Cl2S4KJBfVtCkihyB3hPUEizqLVKRpJkLtns9oQliU7LM+c6dLl27Zg0/Zh0g0Yp310BpZ6g4A8KVi2nV7GI0ujq6oIo9fv54hRddKxEq2THZhiMWq7XExZjtuBaWJCONbvNWm5eSZJRzbEMmV+alGnTHKjvD4SFWH0qALEUCIv9ft6qVVj1nDSoZtxuVI3LNI7NMI7NMOY7dDWdvrAgProwL82ijlEkEqUN3X6R0tuvyLDplQzBxamGmYWWFmewzx+hCAUjosvPGzWcRcdd0LIUF62mw++PCDdOT0s1qxFCuQ7d4onJdV3+DleosccvSHTJxGSHUaVgmMlZpolZpmNNbqfvwh4tcEEauv3BiLhonCM7SUswTjWrr52a2uUOdfaHwxGxzx8Zl2ksTNHl2LVFKfpxGUa7UXWhj1oBown62xKSkiOLJyUvGu+o7fT97N1K2Sda9XrDEVGq7/JVdXgjvJRn107LsziMSrlW1WcZUjY2aW6JraLZ9fy62oHjQzCeU2KbkmOy6BR9vog3JBxqdCGEcuwaLmahSpR6w4JWyQwUtDEYKzjS6Qr5QoJRI/9KeABcEIzxxCzTmDQDReihVw6d9b6RInSs2bXqQPs1U1LGpMe0so3m2rUPleVkWj/r4A9FRFdA4BjCMYQheHymsShV7w3y/2/F8dFpKpONyu8syitI1kX/KUpSrzes4gjHkEBE5BiiVnw2kMwwWMWRHm/YHxLouR5UMmwOo/KeednjMo3Rf0oUdbtDLCEci30hsd/HmzTc2ztberyRZKNqSq4p36HjWOjTiV+QtyUkjLGKYxCHlBwhcbB+dK8n0uoMbqzoLkjW+cPC5uPde2v7vve1fLtRnvq2geOj4pjBTSHLkDzHZ43pi+trT7R5m3oDM/LMY9IMsRsX4BiSYVEfbXJ1ukPpVjXGqMsdqmrz2o3KsCB3xg3AReFYwrFEkui57s36feG1RzpNGm7hWHtMIyEYj0k3FKXqo6mGL8RvPt5Tfrx7Rr7FolNgjDkWcywRRIkZrT6kghRdrkPLMQQhFAgL20/1/mdX69xiW7pF3djjD0bExt5ASZqBY0m/nz/R5vWFhYhIaczK7gqSdQOzNHhB2lXtfGtny/hMY65d6wnyna5QRbM7wAssIXtr+zZWdH97Ue6UXJknuoHzgLwt3N14gwAAIABJREFUscne0xalUbLzS5NumpFemKyLCNLm491/39KQl6y7d1623KGdk8OgDIRFf1g83uI53OiyG5SK2EzwVLB4ep5lw7HuP2+svXZKKseQNQc7OtyhVIsKGkZwSZIkeqzJc7jRvWx2pk0f28mSGGOWwSyDJEqr271v7mredrJ3QpZx2ZxMzaDC39FsKVmGsAwSRFrf6fvPnpbNx7oLUnQPL8pTK5iiVH2GVb18c0O/n08yKLee7DnS6LLoFTFtCqLxUEobu/3v7G396GDnmAzdt+ZnW/VKf0Qck24oSdPPH5PEMLi63fenj2tf29pUmm7QqiA9iFPwxYDhohTNG2ObO8aGEcIYU0pvnJa6/WTvzureO2dlxlV/uyjRYERkCFZx5K65WRShNmfw2VWnVh1on5ZnSTbFJG/DGBen6X9yfdHKPa1v7GhRK5grCs0GNYMQ1slYAghAzPQHIuWVXXaDYnqeeXQq3P1hYdX+9r9vaTBrFQ8vzF00zmHUcDJO1vYE+dUH2t/a2aJgyQNlOddMSdUpGYRxplXz/SWFH+xv++hQB0ZoQpZp0Xh7izOoUcTwMFFKXQF+w9GuN7c3U0TvnZf1jZkZSo4gjLOsmqdvLhn46MsKLNWdya9ubexwhfI/H+cF8QYuG2C4BFFq7Q8iinLsWoQQxphjiYIjfFiS4myNa6c3/OGhTqtOsWiCXaNgMULJJlVxqn5/XV+YF2P0oRKlfb6IXsX+YHGBLyQoWIIQ+vl7J4pTDRolLOEGLjWU0lZnsKrDN6fYZtEqRiF5CoSF17c3vbO79fppKTdMTUu3qhki5+0iL0jv7Gl9e1fLwnGOm6alZts/GzOVKHUHeEGQ7puf/fXL0xFCHMHLtzTajSqdKoZLAoV4cc3BjhV7WmcWWG6akV6YrGU+j6fHE3b5I9lJWuVnow1UyWGCsCj3XDdwHpC3jQBKqc/na2xs7OvrY1k2JSUlKyvrXE+H7O3trampycjISE9PH6lPl/cMC/Pi+/vaqjt8P7+5JMWkFkSpotnd7PTPKU5SXPgjMkcWPf34MAQ39gb21DjHpOsLknWihFr7gnVdPrtRFbtBAUlChxr6P9jffs/crGl5FoTQ6gPtHa7QrZdlKLk46owEiYvn+cbGxq6uLkmSrFZrdna2RqM5ax7g9/urq6s5jisuLh6Rp1jSMxogXpBOtXsDEXFMmkEd+zsTSmlFs2fNgfZrJqfcOTsLI+wOCJRSQrBexQ5eevfzaeUx19gTeHtny8Jx9mWzMlQK1hsUEEIYI62Sre30vbKlcckkx9UTkwnGO6ucJ1o9X5uYbIrl0t/NzuCag+0z8ix3zs7Uqzl3UKCUMgSrOOZoo+vfO5sfmJ8zs8hGMOp2hyuaPelWdbJJ5iXTwXlA3jYC2tvbX3nllU8//TSat6Wlpd1zzz1LlixRKIaeipIkbd68+S9/+cv999+/bNmyEfn06FNDR+Q/dXFUCqY03bD+SOcL62onZBpDvLi7uk/DMVeNd8TFXPJBjbVRw80ssCwvr19e3jA52xQRpeOtnk53+K45WXp1rM4FhsHpFnWYl/61vflUu0+U6LojndNyLROyjPL2CoBLQyQSefvtt1esWNHZ2RnN2xYuXPjAAw9YLGdZMu3EiRO/+c1v0tLSnn32WYNhBKZ50jNanwAvHm/16FVcskk1Cr/wiCBVtLj6/XyLM/h/m+slCSGEBJHq1ewdszKSTf9df4SO1uOM99f39Xoj7f2h17Y1RRcYkijSKJhbL093mFQ6NfvW7tZub4QheGeV025UXV5gVcXy6SlHGl2tfUGbTvHGjuZoP5ooUaOGWzIpOc+h5Rjy8uaG6i6/ksGnOnzHW9y3zzqtNBDEG8jbhiscDv/mN79ZsWJFTk7O4sWL3W73qlWr6urqKKXXX389GdRsSZJUU1Pzzjvv7N69++abbx6RTzdquEXjHfkOnYwJEsuQOcU2gvD6o52rDrQrWFKUor96gqMwRf7yCKtOUTY2qThVF80gWYbMLrIyBH1S2fvuvjaVguTZtQ+W5czItyiYWF1gMMaFKfqHF+WuO9S57kgnQ3DZWPv1U1MtOlgBBAyXKIrvvPPO//zP/yCErr32Wo1Gs2nTpueff57n+SeeeEKtPm3VNKfT+eGHH5aXl5eVlUnSyKxYOK/EZtYpOfa/LRCDcYFDV5SsTzbF/PFNCCGKULpFs3hiCkVIED6bkxm9mR2coylYMrfEpldxo3AzmaRXXDc1hSGYF2h0xW/6WbckTTWr778yZ+3hjk8re0K8NDHLdO3UlGy7JqZRWXWKq8Y7CMaC+Hk8CEUTuGy79gdLClYd6Cg/3h3hpYwk9X3zc+aU2GDd3XgGeduwUErXrFnz5ptvjhs37oUXXigsLBRFce7cuffdd9+LL75YWlpaVFSEEOrr69u2bVt9ff369eu3b98uiiIZodvQZJPq3nnZHEvkWiktSqNkrxybNC3fHOYlgpFawWiUbDxMlkyzqu+ck8UyZGAZSZ2am19qn5FvDUZEjJGKYzRKhiU4dsUlGCElx0zNNY9JNQQiIsZIr2LVCgaecAWGiVJaUVHxwgsv8Dz/5z//ecGCBRjjm2666cEHH1y+fPnUqVOvvvpqjHEoFDpw4EBlZeWuXbvWrl3rdrsZZmR+fhjj267IxBirBo34a1XszTPSMMajUwagZMm80qQriqyfDTxE8zaKCEaDl/5WK5hbL0vHGI/C8hazS5JmFFjRoHgQRRgjtYJhCSlM1mWU5frDgkSRVslolGysQ5pVbPvseRWnxYNVCsIQUpJmyLJp/WGBUqTkiFbJckwM20MwfJC3DYvL5VqxYoUoinfeeefkyZOjG2+++eYVK1Zs27Zt06ZNBQUFhJCqqqpHH32U5/kRX1mRIThOZmuzDBmFp7NfKJYQVjn04sExxKghRk2snipzrkgMGmIY3Q8Flzae5z/++OPa2tobb7zxxhtvjG6cPn36/fff//jjj7/11luzZ8/W6XT9/f3PPPPMkSNHEEKRSGQEmyB8em4URTAezWelRBdr/MJxxtGM6vzxEIK1KnY02+0viAdjnYrVxcd1BHwZ8FUNS0tLy8mTJ41G49SpUwc2MgwzZ86cdevWVVdX+3w+g8GQn5//pz/9CSHk9/tff/31Tz75RL6QAQCXCK/XW1FREQwG58+fP3j7nDlzCCE1NTWdnZ35+flGo/HJJ590uVyU0i1btrz55ptyBQwAGD7I24alp6fH6/UmJSVlZGQM3p6enk4IaWlp6evrMxgMSUlJ0bvhvr6+7du3b926VaZ4AQCXDp/P19HRIUlStB5jgMViSUlJ8Xg87e3t+fn5Go2mrKwMIcTzvMvlWrlypUzxAgBGAExnGxan08nzvE6nM5lMg7ebzWatVutyubxe7+Dt9MxJ8wAAcFFcLpfP52NZ1uFwDN6uVqttNlswGHQ6nYO3U0pFMVbrFAIARgfkbcMSCAREUcQYD1mtjRBCCIlEIpFIRK7YAACXtlAoxPP8me0PxpgQwvN8MBiUKzYAQIxA3jYsCsVnq4GftReNZdlzrb4LAADDxHEcwzDn6sInhHAczIMB4FIDeduwJCUlKRSKYDDo8/kGb/d4PIFAwGw2j8jKlgAAcCaLxaLT6URRHDIeGgqF+vv7tVptUlKSXLEBAGIE8rZhsVqtWq22u7u7sbFx8PampqZwOJycnDyk7g0AAEaKRqOxWq2U0srKysHbe3t7W1padDqd3W6XKzYAQIxA3jYsmZmZRUVFLpfr8OHDAxsjkci+ffv0en1JSYnRaJQxPADAJcxgMEyaNEmj0ezcuXPw8w8OHDggCEJBQcGQee4AgEsA5G3DYrFYlixZEolE3n///dra2ujG7du3b968OTs7+4orroD6NgBAjCiVyrlz5zocjo0bN+7cuTO6saam5o033tDr9UuWLNFqtfJGCAAYcbB+27AQQq6//voNGzZs2rTpsccemz9/vtfrff/994PB4L333jtu3Lgh+1NKeZ6XJAlm4wMAhgljPGXKlPvvv//pp59+/PHHr732WpVKVV5evnPnzjvuuOOqq64683l6giCIoiiKIixIBECCgrxtuJKSkp5//vlnnnlm48aNu3fvppTabLZf//rX9957r1I59LHKDMNkZGQUFxfbbDZZogUAXErUavV3v/tdnudfffXVF198ESGk0+nuvPPO3/zmN2azecjOGGObzVZcXJyZmQlDAQAkKMjbhgtjnJ2d/fLLL9fU1FRXV6tUqkmTJqWkpJz1IYAGg+EHP/jBgw8+CPMVAAAjQqVS/fjHP7799tuPHz8eDofHjBlTUFDAsmdp21mWXbp06ezZs1UqFQyhApCgIG8bGSqVaty4cWcOjA7BMIzJZIKkDQAwghiGyc7Ozs7OPv9uGGOtVgsZGwAJDeYlAAAAAAAkBsjbAAAAAAASA+RtAAAAAACJAfI2AAAAAIDEAHkbAAAAAEBigLwNAAAAACAxQN4GAAAAAJAYIG8DAAAAAEgMkLcBAAAAACQGeF4CAGDkiaK4devWv/zlLzzPn/kqIQRjnJqa+p3vfKe4uHj0wwMAXNpaWlp+/vOf9/T0nPkSxpgQolar77777kWLFo1+bMMEeRsAYORRSp1OZ0VFBaV0yEuCIHR0dITD4ZKSkjvvvFOW8AAAl7ZgMHj8+HGn0znkWeGU0t7eXrfbrdPpysrK5ApvOCBvAwCMPELI7Nmzly9fLooiIafVYxw8ePCFF15wOp1XXnllXl6eXBECAC5haWlpL7zwQjAYHNL+tLe3//nPf967d+/EiRMvv/xyucIbDsjbAAAjjxCSnJycnJw8ZHtdXd1rr73W398/b968xx57LCkpSZbwAACXNq1WO3PmzCEb+/r69uzZ09DQkJOT89RTTyVokQbMSwBfVvSuJVqZJHcs/zXkXkpGGGOKUPwcnPg5MgN6enr++c9/rlmzJjMz82c/+1l+fr7cEYEvEK0EkjsKhBAihEEIYYzj5xRDCKG4CSZ6WOLn4MTJz2awUCi0YcOGf/zjHzzPP/bYY/PmzYvDIL+Mr25/W22n7/39bWfU3nyOIoHS3CTNDdPTVBwzqpENIkqSs8/Z2Nh4rjBHDaW0u7ubSlJvb29zcwvDynZMojBCzt5eSZKcTmdraxsmMrdWDCFOpxMh1Nff39zcLEqSzPEwTGdnZ7w04QghhILB4Lp1615//XWFQvGTn/xk6tSpckckJ5c/8sG+9i536Fw/XUmiJi137ZSUVLNaxouxx+tpbGpUKhTyNkEY4472dkkSvT5vS2ur1+c7s25ylOPp7unheT7g93d0dPr8fhmDQQgxhHR2dgqCEAwGG5saGUbmKzshpL+/XxDOMidJLpIkVVZWvvTSSx0dHQ888MAtt9yiVCrlDuoifXXztubewN8/aRRFetbzn1LES9Lc4qQlk1Jky9swCofDb7zx1ooVK+UJ4HQ8z0cikTffenvlu+/JHQtCCAmCEA6H33n3vVWr18gdC8IY8byAMXr//Q/Wrl0r6zUlGg8WBEGlVsscx+dEUdy1a9dzzz3n8Xh+9KMfXXfddQqFQu6g5OQJCu/ua61s9RKCzvprESSaZVXPyLemmmX7EjFCu3btPnTosFwBDCZJUjAY3Ldv/7FjFXLHgtDn8Tidzu899rjcsSCMkShG4+n91rcelL3XDSMkUerxeAoL4qVDq7Oz86mnnjp8+PANN9zw7W9/2+FwyH6ULtpXN29jGKJTsoIoaZSsVskM+QYpRYIopZpUcn6zFDEMyc3NzcrKREjuRIDi1rbWkydP5ebmZmZmELn7txDCra2tJ0+eysnKzMnJQXKHQzBpbWs7erQiKzMzvyBP3s4AhBAhpKe7d9/+/fKGMaChoeGZZ55paWm57bbb7rzzTqPRKHdEMsMYaZSsRsmoFMSo5s48oUSRpppUSk7Oyx5FyJ6UNHZsKcPIf/X1+wN79uy1Wa0lJcUKpfxJv8ftPXL0qE6nGzu2VKHg5A0GY+xxew8dPqxSqaZNmyp7+4wRDobDO7bvkL0ljPJ4PP/7v/+7ZcuWGTNmfOc738nJyUncpA19lfO2KIrQlaVJiycmn/klUorMGk6lkHNAUMEpFi4ou/baa2SMIUoUpc3lm2tr6xaUlS1Z8jWOk7mdQgitX7+hrq5+3tx5N954g/zjthh//PHGo0ePzZ496/bbb5O9tSKEHDp0eMeuXfKGEdXd3f3b3/52z549V1555cMPP5yeni53RPFCEGmBQ/+tK7M1SmbIT4ZSpOJIhkXmHtNxY0sff+wxTu68BCHU3t5x9OixkpKShx9+0Gw2yx0OqqqqamxqzM3JfejBBywWi7zBYIxramvr6uuTHY7vP/4Yy8p+Zcf9/f0VR49JcreECKFAIPD222//61//ysnJ+fa3vz1t2rQELWsbIPu3K79Mq3pmoZWR+wblrDDGKpUqHjonBEFQq9UYY5VKqdfr46EyQKVWE0yUKqVOr4uHQTelUoUQUiqVBoNB7lgQQkij0cgdAkII+Xy+V199deXKlUVFRd/73vcmTJiQ6I3mCJIoMmsVM/IsBo38idFZcZxCb4iL893j8WKMWZbV6XTx0CSq1RpCmPiJR6PREEIYhjEajXGQtyFB4HEcnOmCIGzatOlPf/oTpfThhx9eunRpPFwshkn+wyo7CSEq+yhkIpAkihCSvSdpiLiKJ65yf4nKPDcCISQIQnQClyiKjz766Lx58+LhihJXKELyf0/nFT3xZUfj4Pd8NnFxcOJQnLTMFRUVL7/8clVV1c0333zXXXdptVq5IxoBkLcBAGLl4MGDL730Ul1d3X333XfnnXeqVCq5IwIAfFW0tra+/PLLW7duvfzyy3/605/Gw/D6iIB734REKfUGhUMNruOtboxxUap+YpbRolXIUo4aioiHGvsbewLk9CJBJUtmFduSDHKOsPiC/LYqp02nmJJrYghBCPGieLTJXdfplyjCGImU6pTsjHyL3agksa9U5UVp47Eus4abWWQb8pI7yO+r6TNrFeOzDAq5y/WGT5Kkqqqq3/72t/v27bvlllt+8YtfqNXqs96CJ3SBMNhxyukL83NLbGoFixCilAbC4sl279EmVygi5jq00/IsNn3MG4EwLzb1Bg7Uu7rdIbOWu6zAkmvXsQxGCIV4sarde7jJ7Q4IaRbV5fmWZJOKjfFMixAvVnd4DzW43AHBYVTOKLBkWNRDPnRvTZ/TH5lXbNOoYnshppTyIm3q9R9r8rQ4AxoVM7vQluvQsgyp6/Ida3bxAh1yGo7NMIzNkH/w96JRSvv6+pYvX75ixYrS0tLnn38+IyPjkml/IG9LSD2eyGvbGneccuo1rCTRj491zSyw3jUnM9mkGv1fYYgXd1Y5t57sHVwj2NEf0qvZkjS9LHlbtJ0KRcSDDf1/21x/1XjH5BzTZ9FGpP/sat1b22fVKShCgiTZjarsJI3dGMM4KaWCSEO8WNPp/eP62msmpQzO23hBCkbEww39y8sbysbaS9L0isQ/Lz0ez+uvv75hwwa73T5v3ryTJ0+e+ZRAtVqdm5ur1+vlChJcNEGUwoLk8vN/2VSXYlJdlm9RKxBCiBelNQfb39nbxjGYY8nHFd07qpxPLC00a2NYVBTixY+Pdb2xvVnJEoqQN8hvrOh+sCxnZqE1Ikjrj3a+s7tNolTFMVsqI+XHux9dmFuabozdXa4o0U+Ody/f0sgySMkxnoDw0eGO/3dt8Zh0PcZYEKWIILkC/Mub6vVqdnqeOdZ5W0SUtp7ofWNHMy9SBmNfWNh4tPu++VnzxtirO3wr97QFI+Jny/Yi5A7yTh//5DWFCZ23iaK4cePGV155BSE0d+5cv9+///TJ9ZRSQkh2drbdbpcpxouX+NeHrx6J0p1VveXHu2+akX7DtBRBRKv2t6090jk+07BwnINjRztv0yjZ66amziqyDVyYG7r9r+9omlVoS7PKMxtOlOje2r6tJ3uONrmbnUElxwwsa+4LCX2+yFXjHQvHOyhFEqVKlmTZNDE9ahFBOtzo2nqy90iTq9kZ0KhO607bW9e3pbKnotnd5AwouFHo9RsNvb29a9asCQaDLpfrhRdeOHMuAqU0Ozv7ueeemzx5siwRgotGKa3q8G6p7Kls8VQ0u/Md2oFfbXNv4LVtzZcXWJbNyTSouf11/S+sq9lwtOvWy9JjN/errtP32tamXLv20YW5Zp2ittP38qa6N3e2TMgy9XrDK/e0ZVrV35qfnWxSHWpy/+Gj6nVHurKStAZ1rOaC9Psiy8sbUy2q716dbzcqT7R6fr266p29rT9xFCkVTE2nb0tlT2Wr+1Bj/+IJyUPXoIqBHnfk39ubjBrugbLcTKu6wxV6cV3tf3a1FqUapuaa7QalKH3W3+YJ8O/ta/OHhWm5iT2kKAjCmjVrOjo6FArFBx98sGHDhiGdbdH7xieffPIb3/iGXEFeNMjbEk9EEDvdoVy7dvEEh02nxBhPy7N8cqKn2xMWKR39aWkKlhSm6FHKZ//s80U+PdFTkKy7fVaGXiXPLDlKkT8s+sOiUcPplAxCFFEanTbQ641gjC7Lt07PM49aHzmlyB8WfCHBrFXolOyQOm9/SPCHBZOW6/Oxl0yVs06nu+6666644orz7JOUlASdbQkqGBE9Ad6o5sxaDg0qzj/c6Arx4vVTU3PtOoTQgrH2rSd7Nh7rumZysi42rYEoSVUdXneQv+2KjFyHDiE0Occ8s9C6Yk9rfyDi8kcYBl81wVGQoicET8s15yVrO92hUESMXd7W6w0HePGGaalFqXqE0LQ8y5h0fWNPICJSJUJhXnIHeJ2Ks+gUaFTmNdR0enu84VsuSx+bbiAEGzTcdVNT/7C2ur0/OKvIlmz6rOo0zIsfH+sSJOnuuVm5jsSu3yeEzJo16/zNC8dxDodj1EIaQZC3JR6GkEXjHXNLbEkGZYiXAhHxZLuXIpRmUcu+mgkvSjuqeo42ub51ZU66fEtPsQyeVWSdmms62eb544a6wTdargCPEG5zBV/eXC+IdFy6YVKOKaaDOAghBUcuK7BOzDJ1uMMN3f4hVRZXFNmm5Jqr2r0vb6q/VNI2ZLPZfvCDHwiCcJ59WJaFvC0x4dJ0Y65dRyn93r+OCoNuRHq9EZ2SMWk/S4k4llj1yoP1rj5/JEZ5G6Io1657uCw3z6H7bAOlEUHCCBOMspO0TywuyE7SCJLER2h1h7etL3hFoU2jjGEJabJJ9YubS4pT9bwghnmpvsdf3+2fkmNWcQQhVJyqz7RpKKU/fLNCGJVJlw6j6r552ZOy/js07AsJGKMhNX6NPYGPDneMyzBOyzPLfikZJo7j7rjjjptvvvk8+2CME7T9gbwt8bAE59i1CCGM0K9XVZ3q8Db1BuaXJo3PNLCynmyU0ra+4MdHu4tT9ROyjDKe+RhjnYrVqVidkh0y7ugK8NWd3oYef3GqzhcSVu1vmzcm6aEFuXaDMnadbwRjrZLVKllPUDhzHDQaaoc6lOBN5WlYlrVarXJHAWICY6RWMGoFI0l0SJVYrkPX4+NbnYFMmwYh5AnwFS1uipA/JMYoGELw2AxDSbqBYzClNFpuu+5I15Qck1Wr1CgZs1ZBKV11sOPTEz2n2jxWg/Kq8Q6NMobXPqOGm55n4UVpS2XP6oMdtV0+hqBbL0+PzpNQKZjocu6j1kIWpujyHFqOIZRSiaKjTa7XtjWVpOrz7P/NdP1hcfPx7mBYnF+aZFBziVitPxjG2Gg0xsO6erEAeVviwYNOKYueSw+rI7xU0eQ+3Oi+coxCIdfTVBEK8dKnJ3o63aHbZ2VadIr4PPMNaras1F421j4j3xyMSOsOd/7z04Y0s/r2WRnqS2A6AACjbvB5Pj3PXJyie3F9XWt/SKdid1c5q9t9Fp0idjkKxphlMItQiBfru3zv7m3bdqp3bIbxoQW5GiWDMcYYSRTpVGyySRnitS29gS2V3SlmVex62aMfiiWsUTIpJqVIaW2H7/29bY8sytUqT+t0HJ0mkmUIQ2hEkBp6/B8d6lx7uKMwVf/tq/Psxs9GSClFNR3e8uPdV413FKXq47PpBgPgQpV4eEHyhQUFS9QK5lvzcyVKazp9v1lTte5w59Rcs02mvI1S2usN76hyFqXoC1J0cVtdf3m+5bJ8C8cSgrGCZa4cm7TtVM+xFvdNfJo64ZfRBkBmJg33/cX57+5rX3eok2VxUbJ+/hjbiTavJcalCC5/ZFNF99s7W1iWfHNmxtLJKXaDEiHkCfKUUp2KWzDWXlZqdwf5/9tcv/FY1/R8y7Rcc4wSFG+QFyRqUHMzC22XFVj9YfH1bU1v7WyeX5o0NVeGJ2JRSt0Bvvx49/v72/1h4cbpad+8PMM2aKa/INFtp5wIocsKLCr57vzBlwR5W+Lp80U2HO10mNRzS6xqBYsQzrNrS9P0J9o8YSFWgxFfiFJU1e5r7w8unuCwxriNvmghXmx1BglGGTYNYTBCSK1gdEo2wIvxsbg3AImt389LFH1nUV6vN4wJdhiUv1p9Ks+h1alimA34Q8J7e9ve29925Rj71RMd+cm6aPLBi9KOU71d7vDSyclJBhVCyKThLi+w7K1xugMRGrPurr21fVUdvttnZZo0HIOwSUNmFlrf3tXS5QrF5gO/QIiX1h3pfHdv24Qs49cmJk/MMinY00rbPEF+Z7WzNE0frcABcQ6elzCSfD7f4cOH6+vrJemcj2Tp7+/fv39/e3v7RX8KxuhEu3ft4Y5+X4RSKlHa4w03OwM2vVIt362SJNF99X0KlpSkGWRZ/vfLCEXEtYc7lm9p6HaHKaWSROu7/C19wTy7VsnBuQASG8/zVVVVFRUVoVDoXE8ZCgQCx48fP3ny5PmnjFy0tr7gr1dXVbV7SzOMY9IMtV2+Qw2u2cVJsavfoJSeavOsOtC+aLy4hJ1tAAAgAElEQVTj/iuz8x06RFEoIoYiIqXIFeDXHOqoaveJkoQQCvNidbuPIcSqU8SukQpGxHf2tJ5q80QnbIR5sarDSzBOlWmqVltfcPWBjknZpvuvzBmXYZQkGoyIIV4UP79OVbV7m3sDk3NNuliW/YGRAl/SSDpw4MBzzz03a9asp5566lz7bN68+YUXXnjooYeWLVt2cZ9i0Slm5Jn/r7zhjxvq5o6xBSPijlO9zc7gQ2W5sZqx9SX4w8LhRleKWT0wqzweSBRFBHFgvptOxWbZNB8d7nx+XU1ZaZIvJGw41iVROqfEphqVvE2iNCKIgniWtF6iNCJIghgfD4MECaitre33v/99MBj83e9+l5KSctZ9Tp069eyzz6ampj733HMGg2H4H8oLEi/89zebbFIxhPx5U127K0QRWnWgPd+hnVVojV3hRESQDja6Ot2hhu7AnzfWR3vORZEa1OztszIm55jXHOz4W3lDszNg1nIVLZ7y490Lxjpy7brYVXFNzbXY9IoX19csnew3abnqDu+6w52LxjsKU06bvRgRJF4YjfP9QH1/bZfPoGZf/bRJopQiRCVk0DBLJqVEQ9pb28cxOCdJF7e33GAwyNuGi36uu7t75cqV27ZtKyoqOus+kiQ1NTWtXLly3759w1nrj2XIovHJCpZZe7jjl++f1KnYsRnG716dPzPfwjGynXUiRaVphsnZRm0sJ9hfKIuOm1uSlJ/yWec/y5CF4x0Klqw+2PHsB6c0SnZqnvmhBanjMoyjU5CnUzFlY+2FKbozXzJruVnFtvwU3SiswwkuGQPtTygU2rJly9q1awsLC4f0pQ3s43a7169fv2XLloULF55nTOCCzCqymnVK9vOWx6rjfnZD8b93NC3fUk8purzAct/8bJshhoUTFCGHUXllaZIgoT5fJLoxmg6JEs21a59YWvDBvvZ/ftoYioj5ybplc7IWjrUbNTG8xXWYlL+4ecxbu1pe39YUiIhZNs0tM9JvmpGmUZzWNs4stGoUjCL2jbZBw84dY8MU9/kj0fXiJEoR5gZuIE0a7qYZaTKu3AQuCORtwxUIBHbt2tXY2FheXr527dpwOHzm0vD9/f07d+5sbm7+8MMPt27dKoriMG/1dCp26eSUsnF2f0hgCNYqGBmnkUaZNNxT1xWzQ5fdkFlWkvY7V+VhjAbC0irZxZNS5o9NCoSk6KHjRnGE1G5QP7G06KyHKMOqeXjBaaEC8IVEUayoqKisrDxy5Mh//vOfjo6O4uLiIc1LJBI5cOBATU3Njh07Vq1a5Xa7McYj0ttECH5wYR4atKQFIaQ0w/DLW0q9YQEhpFexXIyfBKpkmaWTUpZMShlcrkYRjUZFMJ6aa5mQafSFRUmiGiUzCtPGCcZjM4zP3Kz3hQRRQmoFUSmYM8/r++bnIISY2Odti8Y5Fo5z4DOPz+ch3TE7iyE40dds++qAvG24nE7nM88809jYiBAihJy1Nayvr3/yySd9Pp8kSQwzYgmWmmNkLGgbghAch33sBGNytmZRzbExWyz9fDBG7DmaaYxx4j9NHoy2cDj8+uuvv/fee9H/f9bmJfqosb1792KMo49lHMEAzrpmJMcSCztKk5MwRsxZUsPTouJYxjzqZxfLENN5Z2idqymIRSRnbDvto4dMUwBxDvK24TKZTI8//ngwGOR5ftWqVevXrz9zn4yMjJ/+9KcIIb/f//bbb2/btm3UwwQAXIIUCsUNN9wwZcoUQsihQ4dee+21M/fR6XT33nvvDTfcQCn99NNP33nnnVEPEwAwYiBvGy69Xn/99ddTSgOBQE1NzaZNm87cx263f/3rX0cI9fX17d27d8eOHaMeJgDgEsRx3KxZs6KzR7Va7cqVK8/cR6PRXH311ZRSnuf9fv/q1atHPUwAwIiBvG24BipFzlMvgjGOjl+cayAVAAAuTnTc8zzzDAbaKFGUbX1HAMBIgVFtAAAAAIDEAHkbAAAAAEBigLwNAAAAACAxQN4GAAAAAJAYIG8DAAAAAEgMkLcBAAAAACQGyNtGkiRJ0eeQnmuH878KAADDEX0O6Rfu8IW7AQDiFqzfNmIwxsnJyWPGjElNTT3XPizLpqWllZSUmM3m0YwNAHDJ0+v1hYWFmZmZLHvOht1isRQVFWVkZIzgA/cAAKMJ8rYRo1Kpbr311vnz51ut1nM9AVCn091///033nhjWlraKIcHALiEYYynTJny0ksvKZVKq9V61n1Yli0rKyspKdHr9Wq1epQjBACMCMjbRgzDMCkpKSkpKefZh2XZjIyMjIyMUYsKAPBVgDE2Go1Go/E8+xBCrFbrubI6AEBCgPo2AAAAAIDEAHkbAAAAAEBigLwNAAAAACAxQN4GAAAAAJAYIG8DAAAAAEgMkLcBAAAAACQGyNsAAAAAABID5G0AAAAAAIkhwdbdjUQioVAIIaTRaM58lgulVBCEYDAY3YFhGIyxDFECAC5FoigGg0FRFFUqlUKhOLN5+cIdAABgmBIsb6utrV25cmVvb+8dd9wxY8aMIa9GIpFt27atXbvWbDbfc8898FgCAMAIcjqd7777bkVFxezZs2+88UaVSjX4VUmSqqur33jjjVAodOONN06fPp3jOLlCBQBcqhJsnFSv17e0tPzjH//43e9+53K5Br9EKW1qanr++edfeeUVl8ulVCrlChIAcElSqVSBQOC999775S9/WVlZOeTVYDD46quvPv/888ePH1cqled6SDEAAAxHgrUsGRkZ991335gxYzZt2vThhx9KkjTwUjgcXr169a5du6ZPn37HHXfYbDYYpAAAjCCDwXDrrbdeddVVDQ0Nf//736M1GwP279//1ltvpaSk3HXXXePGjWMYRq44AQCXsATL2xBCkydPXrZsmSRJy5cvr66uHtheV1e3fPlyvV5/2223lZaWQqMJABhxaWlpd911V1ZW1gcffLBly5aB7aFQ6KWXXurv71+yZMnChQuhvx8AECMJVt+GEFIqlXfccceGDRt27Njx1ltvPfnkk1qtVhTFv/3tby0tLbfeeuuSJUuG1J0kLhr9X0pljgMhSml03IcQgjGOh5AQpRRRgjGlNB7iwTiOvi+E0EWM050ncowRgf5rhBiGmTNnzu233/7b3/72r3/967hx49LT0xFCq1evLi8vz8/Pv+uuu2w2m9xhjhSKMSKExMNPmhBmIIx4iAchihBFCFMaF/FghKJRxEl7SAj5/Ar2ZZ2//WGhAfpc4uVtCCGLxfL0009ff/31K1asmDFjxlVXXfXRRx/961//Ki4ufuSRR1JSUuQOcMRIktTT21tf3yD7WUgR7ezslCSpq7uroaGBYWUuuMYI9fT2SpLU3dvb0tKCsMw9xwxDenp6EELO/r6GxqbBI/hyxdPW1kYusFRgf33/rmonQmcpMejxhHo84Qv9D16SFArFww8/vGPHju3bt//73/9+/PHH6+vr//CHP7As+/3vf3/q1KlyBziSPB5PXX2dQiFz9yFGqL2jQ5Ikr8/X1Nzi9njkzUwwQp2dXZEI7/P72tpaPV6vnNEgRAhua28XBD4YDDY0NhAi85UdY9zf3ycI4gW9q7HHv/l4jy8kkDNStEBYON7qYSB1QwglaN6GEJo0adIjjzzy+9///r333rNarX//+98JIffdd9+UKVPkDm3EYIwjkciqVas3by6XOxaEEPL5fJFIZM2aDz/55FOE5D9//H5fJBJZt279zp07Zb+9xBj7/X6M8YYNH+/ZvVf2+12McTAYVFzgaN2+mv7n19ZQis5MzwjBSo5QREVJ7mMdB5KSkp588snbbrvtww8/nD59enl5+alTp5YuXXrTTTfJHdqIwQhhTA4cPFTf0IDlvi9CCPE8HwwGjx49+stfPhsPcz54nu/r6/N6vc/88tl4OD4Cz/f393s8nief/Ek81HaLktjX3194IQVLDT2Bv22u73CFzpKfYaRkCUJUECW5G1f5JWrexrLsLbfcsnPnzs2bN7e1te3bt2/OnDm33HLLpTTxniJECElKSspIT5P/h0pRR0eHx+NJSrKnp6fJ3i5ghNraOzwer81my8rMlD2NxBi3t3c4nU6b1ZaTkx0PeVuf09nd03NB77LouPxkHUL4XMczFBHN2kvnFBuOmTNn3nHHHa+99tqvfvWrpqampKSk733vezqdTu64RgxFiFKq1+vz8/PjIU8KBAJOp1Ov0+Xk5CgU8v8IvV6v2+3W6bQ52Tmc3PFghL1er8vtVqlUBfn5WO5+KYxwOBLu6uq+oJZQo2By7FqdiiPM2ePnBdFuVLLnePWrI1HzNkJIdnb2smXLnnrqqc2bN6elpX33u99NTk6WO64RRSnHcQvKrly8+Gtyh4IkSfr0060NjY1lZVdefdVVLCv/tI+NGzc1NTXNmzv3mmuWnLkI8yjDGG/eXH7ixIlZV1zx9a/fEg9529Fjx/bs239B77qi2JZmVZ9nB1GidoNS9iw5HiiVyjvvvHPfvn3btm3T6/VPPvnkxIkT5Q5q5I0dO/bbjz7CcfJfKTo6OysrT5SUlHzrW/eZTEa5w0FV1TW///0fsrOzHnjgW2azWe5wcH1D/a9+9WuHw/HYY9+Ng2l52ONxV1aeuKCKkYIU3eOLCyKCdK5uAYlSjZJN0n3VJ/3IfzZeNKVSOXv27Llz577xxhvXXXfd9OnT5Y5o5BGMdTqdw+GQOxAkCIJWp8MY67Ram80aD9Pl9AYDwUSr1SQlJSkUCrnDQTqdHiGk1WrsdrvcsSCEkNFovND0MdOqzjhv3hYFaRtCiBBSWFh4yy23VFRUTJw48dprr42HH+GIUymVNptNpZL/fI9EIoQQhUJhtVriYeZHd3cPwzBKhcJqtSYlJckdDurr72MYhmNZu90u+30sQohlmQtNHy1axWUFli/cDZ+1AverRP5v96JhjHU6nc1mI4SkpqZeko1mXIkmAbL3JA0RV/HEVVtCKb3Q1g1/xZvDC8RxXHJyskqlMplMRqPxUj14cXKKxUkY4Eu6iO8L2p8vKYHztqjoxemreUpLEhUkKlHKEswQ+X/zlFJBpCKlDMFsHMTzWUgSxQid9fhIlAoiJRgxZPQmSvKihBFimdMKhqKRUEpZhhD8Vb+bTCBfzZZnsGidOMucdn5Ff8/S6DYFA+0PwZhlMDk9HvHzlzhmlOL570HAeMjxoRQJohRtKjlmlGoHo42hKFGMkIIlp8dDRYkK0lkOHYhDCZ+3fWX1+yPVHd7aTr8/LGRYNeMzjckmlYzTpEWJ1nX6Klo8Tl8k1awcn2lKt6jPnM49yvxhcX9dv0XHjcswDGmsKaUd/cE9tX1j0gxFqfpzluKPKEGUtp3sNWm4Kbn/LYjhBamyzVPZ4okIUp5DOy7TaNJwkLqBhHCo0RWMiJflW5QcgxCilAYi4ql2b1WbN8CLyUbV+Exjpk0T6zBCvNjQ4z/R6unz8kYNOzbDkJ+sV7AEIRSIiHVdvtpOX48nbNJwE7PN2Uma6EuxE+bFU+3ek21eX0iw6hVjMwx5dl20PRRE2toXONTgcvoiqWbV5GyT3RjzpjvMiw3dgepOb6crrFGQyTnmXIdWxX02jtnjCR9pcjf3BrQqpjTdUJiiV56e2IG4AnlbQurxhN7e3bqvtl+vZIO84At1l6Yb7pqTmW3XynWrdKTR9ZeNdSFB0igYf1j89ETvo4vycuxaWYJBCFFKIyI90uT66+a6BWMdpemGIe20LySs2N26YnfrD5YUFKXqRyEeQaKn2rwvbai9erxjcN62s6r37580EoJZgj+u6JpTbFs2K1Onln/GHADnEl1sttsT/uvGeodRNTHLFM3bJIluquh6d28bx2CWEHdQSDOrvr+kIMMaw9QtxItbKnv+s6tFyREqUU9I+Lii69652ZcVWCOCVH68e/WB9uie3iC/qaL7nnlZ0/IssevoEiW67WTvq9saGUxUHOMJ8gYN+/2vFZSkGyRKT7Z5Xt3W2OUKqxRMKCLur++/a3ZWdpImdnlSRJB2VPW+s6ctOrzgCwsbjnXdPSdrTkmSgiWdrtDfyuuPt3iMGi4iiBuPdd8+K2NeSRJM24xbiZ23UUrD4bAgCIIgyB3L6BElafsp58dHuq6dkrJovB0hvLvG+Z/dLVkn1LeZ1SqFDDOJer3hVz5pECX62NV5KWZ1RbPn/zbXbarofqAsZ/SDQQgJorSnpm/LiZ5jTe76bt9V45PPrD3bXuVcf7SLXtRzBS5UmBcPN7o+PdF7tNlV3eG7dsp/l4Zu6wv+49NGh1H5rStzlCzZcLRz9YH2MWmGeWPkr3QGX4j/nOwrLY8mStGJVnd5ZU9lq+dAQ//1U1MHXurz829sby5M0S+bnaVWkhNt3uc/ql5zoOPBBTlszPKkxm7/a1ub0iyqB67M0SrZph7/Pz5tfGtny/hMY4c79PaulnSz+ptXpNv0ylZn4OVN9Sv3tuXYdSmmWD1Wxx3gl29psOkVD5XlmnWKui7f79fWvLuv9UfJxd4gv+pAe487/NCCnEyb5mij+987mjce67rtigx9zG7Vej3hN3a0aBTMvfOyUv9/e3ceH1V57w/8ec4ye2YyM9l3yB4ICfsaVtkpWqtXq7baSultb2/tpS22vd6L1dt7sdWq7c/eunFdWillqRZkE8KukAAGggQISyD7ZJ3J7HPOeX5/jKYxgEbJZDLJ5/16+YfnTCbfDDPPfM5znsWsbXf6f7/r0lvv12YlGBKjNVtPNh461/aDhSPHZZjbunzr9l/dXNYwNcsSun8vuEWRndtUKtXYsWO/9rWvFRQUDIYVhgaG3R0ou9RujRKXFCekWLWUUoOGf/9C20f1Dm9ADktuO3Gl41xD1y/vKpgw0sJxNNaoFniqEcP2L6Iw0u70tzp8KoHT3GgJg4vNXX8+cm38CPP5hi5JDvk3rsJYpytgc/g0Aq9V8T3HRB2/3FHT4lm1NKcg2UgIuXNC0tHq9t2Vzchtgx+lND09ffny5Tk5OTpdyG8FDiasyxto6vQIHI3SCKTHVVG703fF5vpmSXpuUhSlJM6o+VtZ/YXGroCshCgHyAo7U+uoa/f8dFl2frKREJJo1lTVOzaW1bc7/R/VdbU6/A/NTB+TFs1zNN6kvq0wftOxOpvdG7rc1tjhaWj3fmt2emG6iaM03qwprGyubnL6A8rVVveZWseSsfETMy0akTdpxY/qHeWX2xeMiQ9dbjvX0FXT4vrBgszxI80CxyWbtV+dkPTb7dV17R6Okr0f2eYXxi0uSlCLfLJFu3Iud9Hm5BHaBrHIzm16vf7++++/++671Wr1YJj5PDB4jpbkxah4LiZKFZyTIStEUpiGhmcqgCQrZ2odUVohLylq+4dN19rc2Un6cRnRJl3YZviKPF1YFD9ndFxVrf2Z7RcZ+3gnweDZDpf/f9+7kpNgWFSc8PTWCwNQj0bk54yKnZEX09TpfeT1iu4dB2RZudLi0mv4/OSPb9TGm7UZsbpLzW6PX9KqhstbOkLxPD9lypTi4mKe54fMnsh9NH6EZXRqNCHkX179UOqxgr3FoBoRpz9S3VaUbrJGqcsvdVy2ue6bnqoKWQ5gjKTF6v5lwcisBEPwfzlKgx8xjqNpFu3Dc9ILU03BAWSKQgKyQkM8mjXRrP31/aMLUoyKwgKKcq3VfanZNSbVpBZpq8Pnl5XchCi1wBFCTDoxJ8Fw8kqn3R1QFBaiAcHWKNXDczImZpoFjiOEMML8kkIJ4SmtaXHb7L6Z+TGV1+zllzusBtXkLMviogR1iMf/wa2I7C8GSqlGoxluLaZJp1o69uMbbbLCmjq975xoqGlxf2dOhjYcXVxun9zm9FNKf7n5XLvTKwr82yca0mP0j34lJ9iSDjxKqVrk1SIRBa7XfD+PX15/pLbZ7v3Z8qJmu1cekOmA3fXwHO15x9bpkxvbvQkmTfe3GkdpQrT29DVHi8OfFhPZH88hj1IqiuJQ2qOljyilokBFgVMUxj6dgawG1XfmjXhyy7mKms5ovepSszPVols6NjF0/TcCTydlWiZlWgghCmNdHunYxfadp5onjbBYDKpUqy44lpQx5vRKZZc6tpQ1TM4yh3S8ncWgmp4b4wvIB6tad1Q0na3v8kryXZOTZYU0dnq1Iq/XCMFrbEpptF7FUdLS5ZMZ40KTJ4vSo4vSo8kns0aq6h3rDl4tTDdlxusPVrVqRO4v79c22X06Fd/u8r/1fu3KuSMWFMYLAsa3DVL4YohgdnfgZE3ntpON1U3ORUXxswpiVWIYbpIGZOYLyFdsrkkjLT9anGnQiieudPy/nZf+fLj237+aO6gGSfgC8oGqlqMX275Zkm41qBo6PYQQSglhhJEbbMoZaowRhZFeU8l4SmWFBUJ/9xag33W4A/vPtiSaNUXpJqtePSJWV1nr2F7RdN+0VHWIW6eApHxUZ99zpuX9C22pMbr7S9K0n/xGt0+6ZHPuqbTt/aglJ1H/9WkpZkPI7wZQSjiOatV8okVT1+op/ajl/uma4PGeTQ39ZFmQUNfjDcg1La7Sj1reO21LNKkfmpluMah9ktLq8EfrfD9emp0Rq6tr87yyr+bV/TXjMswJ5uHVIRJBkNsiVY3NtaW8fn9Va5JZs2JORkleTLQ+PPclgxPHTFrxwZnpKVYtIWTRmPjyi+1n6ux2d8AaFf6V1rvVtXs2Ha3z+JVmu/ed4w217W6HO3DySmdMlHpSpiVKO9AfB5VA9Rr+WpvUc8Sb0yepBC44bAggspy8Yi/9qGX1V3IWjonXiLzdHfjj3it//aBueo41JzGEs7a7PIH3TjdvPFZPKJlfGL+4OD64DhFjpMPl33mqaUdFk19Slo9LWjo2Idny+ZuC3AqPX1YY04j8lGzL2AyTwyNt+KBuw9G6qTnWKI0gySzQo5/fJymEkKgQDwd2eAJ7K21bP2x0eKSS/Jg7Jyalx+gVhakEjjH2tUnJwQ7LOKNmcbvn2R3VF5q6kNsGLXw3RKS6dvcf914+3+C8a3JySW5MikUrhm84glbFW6JUGpG3Rn0cHAWei9KKAVnxBQZXp5FfUlQiz3nlA2dbGCFdXqnLEzh9za5V8aNSjAOf2zQqPsmsOXiu1eHxmw3qYIWNnV6TXrSEvj8AoN/VtDhNWqE4PdqgEQkh1ij1pEzze6ebm+y+0OU2j1/+2/GGtw7XziqIWVqcODJeb/jkssflld4+3rD1RMOEkeaFRfGjUkza0M/cOnKu9XKL656pqSadqBF5k041Kz92S3lDY4fHGqX2S0q70y8rjOdoQFJaunwcpWaDGLrVLr1+edeppreO1I1KNa6Yk1CYZgpeFnIctRpUKpGPM/4jouk1vMBxLt8wWqIh4iC39Sev19vY2KjX62NjY6+fIsAY6+rqam1tNRgMVqv1S2/9K0lK6Uct5xucjyzOnJxlCfvodYGneUlRW483ll/qmJkfQwhp6/Kda+iKN6oH4GbEF5Ieq1v9lRy/9HGaPN/Y9eKeK/ML4+6YkGTRh2GUEkdpXnKUJCtHLrQtG5dECKlucl5scs4piB1U95chIsiy3NzcLElSYmKiIAjXLzTt8/lsNhulND4+XhRDsrZzjEHV6ZZsdl9m/MdjW5vsvmA+6Pff1e1cQ9fGo/VLx8Z/c2aGSfePDzJj7EqLc3tF022FcfdOTTXrVQOzEniXV17/fu3kTEtRRnTwSF27R5KVeJNarxaNOvHE5Y5JmeYordjq9FVetSeaNWadKnSzyprt3s1lDZMyzd+ekxETpe4emEEpSY3RxZnUhy+0luTHEEJ8klzd6GKMjIwLz9Bk6Avktn7DGDt69Ojjjz8+c+bMNWvW9IxliqLYbLaXXnrpnXfeqa+v12g0s2bNWrVq1ejRo79Eemu2e8svdbj80gcX2soudgYPSoqSnxy1sChBN+DrgFBKZ+XF7D7d/Jtt55s7vfEm9a5K26Vm17/fkRvGpUCClE/2kwn+r1bk0z9Zup0x5gnIHE/jjZo0q25g9hZVGJMUpedaX5MyLTPzYl7YfdnrV0w6cXN5vcDT5RMSP+NJAG6orq5uzZo1brf7ueeeS0z81FvI6/X+9a9/ff3116uqqiilo0ePXrFixe23337r2zrLiiL1uOs3OcuaaNb8dnv1vZ2eNKvufKPz9QM1t42OywzZEtz+gHL8UkeLw9fQ6Xtp75XgZ11SFKNWuGdq6tHqjvp2zxWb+/8OXA1+7BTGrFGqRUXxoZuaMCXb8toB4dfbzt8zNS0mSqysdfz1aN2iMfH5SUaBp3NHxa4/UqtT82MzovedbTnX2PX9+ZmxphCOJ/ngYsdlmzsuSv3moVpFYYQQhbEorbBoTPyIGN3y8YmvlF6JUgvjR5rP1Dm2lNfPL4xNiwntrWS4Fcht/YAxJstyfX39pk2bysrKRo8e3esBdrv9xz/+8d/+9reioqI77rijvr5++/btVVVVzz777JQpU75wdKMkL9HAc7Sp09d9zC+zOJNaURRCwjA1IVqv+snS7P87cO3VAzU+v5Ji1T6yOHNmfkzYd0qx6MUZedbMOH337K2eZ00acWauNTVGSwZqS1CDhp+VH9tzmq1G5H+0JPt/37v86oGrfkkpSDL8/PbctFBOdoMhhjGmKIrT6Xzvvfd2796dnZ3dax1yn8+3bt26n//850lJSfPnz5ck6ejRo//8z//scrm+/vWvq9W3lBimZlstBpX4ydr6iWbNE3cV/OWDutcPXnN5JUuUatm4hAdmpIduXUmZsFiTqiQvxu2V3N6P/3BJIS69IMmKNUo1OcsSkJTaVvfHj2dEVphPCuEQjkSz5vG7Ct56v/Z/37vkDSiJZs3ycYlfn5aq1wiEkK9OTOIpeedk08Zj9RmxupXzRszKjwnpLqVRan56roUprLbVFTyiMBKtFz0BWRC4Oycm8Rz3Tnn9prJ6k05cXJRw3/RUTTimuJkHp0YAABxtSURBVEEfIbfdKrfbfeTIkWvXrh05cuTdd9/1eDy9cpgkSRs3btyyZcuCBQt++ctf5ufn2+32l1566amnnvrDH/6Qnp6ekpLyhX5jvEnzjZlpkvzpo4yIItWF755pRqz+0eU59e0ev8QsejHWqA7jkLtuKVbdijkZIn+D2yOU0BSLduXckWqRG7CppNYo9b/MH6n6dDek1aD68dLse9o9ksLijeoBu5sDQ4AkSWfOnPnoo4/Onj27efPmxsbGvLy8Xhch5eXlv/nNb5KTk59++umSkhLG2O7du3/yk588++yz+fn5kyZN+tIXLRxHvzkznedo99c8pXRMmikz3tBs9/oCil7DJ1u0QigXRVcL3PzC+Fl5sZ9a0ocRjiMGrbCwKL73EtaM8BzRqUPbVBZnRGclGho7vH6ZRevEBJO6e+SDUSveMzV1Rl6M0ytZ9Kq4aHVIXx9CyJxRsVNzrJ86xAj3yYtg0qkemJ46M8/q9Mo6FZcQrQn1iwO3CP88t6qtre2pp546d+6c3+93uVw3fMCf//xng8HwjW98o7i4mBASFxf3ne985y9/+cvx48dPnTqVlJT0hTZ7EHjOqB1c48YIIZRSvVoI6ZSxL0EUOFG4yWtFiSBwxoENlwLHma6b9ksp1Q2+lw4igs/nW79+/YYNG3w+n8fjub4l8fv977zzTnNz86pVqxYsWBBcn3z58uW7d+/esGHDnj17ioqKbmUJTON1q/xTSg0awaAZoAFSHKV6taC/SaehoOZudiqkKKVRGjEq8cajZkWBy4gduL2bdWpB95kvAsfRgawHbhFy260ymUwrV650uVySJG3dunXXrl29HlBTU3Px4sW4uLjJkyd3H7RarTNnzly/fv3Zs2dvu+22W7xVAQDDkyiKixcvzs3N5Tju1KlTb7zxRq8HtLW1nT59WpKkefPmdW8qo1Kp5s2b9/rrr3/44YednZ0JCQkDXjgAfEnIbbcqKirqjjvuYIx5PJ6ampq9e/f2esCVK1e8Xm9mZmZ0dHT3QUppfn6+w+G4evWqz+dDbgOAL0EUxenTp0+dOpUQEh0dvWXLll4PaGxsbG5uNplMvWYq5Ofnq1Qqm83mcDiQ2wAiCHLbraKUBudkBQKBGz6gsbExEAikpKT0nLpFKU1JSVEUpa2tzel0Go3GASoXAIaQ4F5bhBBFUW44TK2lpcXlcsXHx/e8biSEJCcnq9Vqp9PZ0dExQLUCQH8I/8jxIc/hcASb1F6tavB/vV6vz+e7yY8CANwSt9sdCASuj3TBFsnv97vd7rAUBgBfDnJbyGk0GkopY4yxT094YowQIopi96ATAID+pVareZ6/WfsjCMKtL+EGAAMJuS3kYmNjRVHs7OzsuagSY8xutxNCTCaTXo+JPAAQEtHR0RqNpqurq1e/vt1uDwQCWq0WgzQAIgtyW8ilpqaKolhdXe3xeLoPMsaqq6u1Wm18fDwmJQBAiMTFxZlMJpvN1tra2vP4xYsXPR6P0WiMisICNACRBLkt5LKzs6OjoxsbGy9dutR9kDF27Ngxq9Wal5eH3AYAIZKcnJyZmakoSmVlZc/j5eXlPM/n5+fHxMSEqzYA+BKQ20IuOTn5n/7pn9rb299888329vZAIOD1erdt23bw4MGcnJxJkyZ96Q3mAQA+m0ajueOOO8xm8yuvvFJdXe33+/1+/5kzZzZs2BAXF7dw4UKM0wCILBgR32+CuwQqn941nBAiiuIDDzzw7rvvbt68meO4iRMnBveYz8jIePjhhzMzM8O+iScADAHd7U/PKQiU0jlz5ixfvnzjxo2PPvrokiVLGGObN2+uq6v77ne/W1JSgvYHILIgt/UbjuMSExPHjRt3/X6jOTk5Tz/99O9///tdu3Zt3rxZEITU1NSHHnpo+fLl6GwDgH4RHR09ZsyYpKSkXlNELRbLY489Rgg5duzYmjVrKKUxMTEPPfTQI488YjAM0G5UANBfkNv6TfB+xJQpU+Li4nrtEkgpnTlzZnp6+tmzZ+vr641GY25u7qhRo25lW0AAgG6U0qKioieffFKj0ZjN5l5nU1NTn3jiibNnz16+fJnn+REjRowePRoj2wAiEXJbv+F5Pi0tLS0t7YZnBUHIzMzMyMiQZZnjOJ7ncXsCAPoLpdRisVgslpudTUhIiIuLKykpIYQIgoD2ByBCIbcNKJ7ncWMUAMKC47hetwIAIOLgMwwAAAAQGZDbAAAAACIDchsAAABAZEBuAwAAAIgMyG0AAAAAkQG5DQAAACAyILcBAAAARAbkNgAAAIDIgNwGAAAAEBmQ2wAAAAAiA3IbAAAAQGQY7rmNhbsAAAAAgD7CvvKEMRaQmETk609xHBF5jlI68FV9jNJw/vZP4zhKPq5osJRECKF0sFx7UBr8b7DADuIRgRKiKMzrv0H7Q2mw/SHh/cQFP/hhRzmODKr2hw6uj3ywjsHy4gymSoae4Z7bKCEVV+1/OnyV+/TXPyNEUZRUq3buqDi1yIerPFmWm5qbz50/H64Cuimy3NjYqChKs635woVqQQz/O6epqUmWZZvNVl1dzQthrodS2tTUxBhraW09f+ECY2HuyeUovXatllIa9krgM/AcrWt3v/X+Ne11HyiFMaOWn1MQF2tUh6U2QghjzO6wX7hwQVSpwlVDECWksblZkiS7w3Hp0qXW1tbwvq0pIdeu1fp8/q6ursuXL7e1t4e1HEIJvXr1qt/vd7lc5y9c4PmwfWd9Ug/p7LT7A4HwljFUhf/bN1wYY5KsyDI7dK7tYFXrdWeJpCgzc2Om58aEMbd5vd7t23e8//4H4SqgJ7vd7vP5duzY9cEHxwbDtVRnZ6fX531vz54TJ0+GuxZCKbXbOxljpaX7Tp8+HfawxHHU6XSKgoCxAIMTI0RSFErYxWbX73Zeuv4BssLSrNqcRGPYchtjjLGKilP//T9rw96rTSnx+nxut7uysvKZ3z7L8+H/5vL5fG1tbU6n89nnnuc47pMOr/CglHi9vo72Dqez61e/+u/wFhMkSVJnZ2f46xiKwv/uDxeRp2a9KCk3Oc2IpCgmnRjGt11KSsrCBQtUKlFRwv/VywhJSU4qLBytyLKsMDIIGobk5CSe4xVFkRWZhrscRlhSUuLo0cHXRxkM9SQkJBQUFGRmZoa3ErghnhKjVjQbVDe7BJJlZtaLAh+2N5LBYJh/27xAQFIUhQ2CzzuhJDszizEmyzIjLLwfMUYYR2l2ViZjZDDVk8UIk6Ub3HMf8HoIJSQtLTUvN1cUxXCXM9QM39sobV2+M7UOdvPPGmPEohcLko2iEJ5rTY/H43A4BkPPFkQsqtNp9Xo93kWDjccnfVTn6PLJN/uXYYxoRS4/OcqoFcPyzydJUnt7B/pr4UtjjKjVKqPRiLG2/Wv45jbG2Od2YwVHneI7DwD6F2OMsc/PRMEpAWiCAKDb8M1tAAAAAJEFvZcAAAAAkQG5DQAAACAyILcBAAAARAbkNgAAAIDIgNwGAAAAEBmQ2wAAAAAiA3IbAAAAQGRAbgMAAACIDMhtAAAAAJEBuQ0AAAAgMgjhLgAiQ6/90LBhYi+MkR47cOPlAehnPZsgfMB6YeTjNigIr8/QhtwGfSLJymWby+GRTDoxzarVqPDO+RS/pNS2uTpcAb2aHxln0Kj4cFcEMKTUtrqbHT61yKXF6ExaEdGkJ0VhzXZvU4eXEDIyQR+tU4W7IgghfPtCn3R55We3V5dd7pieY/3psty0GLxzPqXD5X9x75W9Z2yjU4z/fc/olBhduCsCGFI2Hqv/8/vX0qy61ctypmRbEdt6CkjKjorm1w7UUEL/5+ujpufGhLsiCCF8+0KfMEKcPrnTFXD5ZEVhn/8DwwxjzOWTO12BLp+Mlweg33n8st0V6NJLARkfsN4YIb6A3OkOUELx+gx5yG3QJ5QQnqMCz/EcblDcAKW0+/UheH0A+hv38eeLQ/tzPRp8fTiOUgxuG/ownxQAAAAgMiC3AQAAAEQG5DYAAACAyIDcBgAAABAZkNvgi8GQ1xuimI0AEHqUEI5i5H1vlBLM1xg+MJ8UvhhvQGl2+Hgeif8fKCGtDr/HL4e7EIAhTlKU1i5ffbuHIKb0EJAUuzvACMP143CA3AZ9xRjhKKlucv5m6wW1iNz2KQGJ1bW7CSWEMYLlkwD6G2OMUtLh9K/bX7PpWD3ySU+KQmwOX0BmaoGi/RnykNugrxghCiOdrkBblx8tQy/B9e2IQhheGoDQYIx5/Mr5RieWtr4ez1HCCMMGe8MAchv0icDTMalGFU85nsOF7s1IkjIiTqdRoTMSoJ+NiNPPyI3hOYo7pDejyEwlcNF6MdyFQGhRhv4B6ANZUdqdAZ+koMn8DIwQlUAtepWA8X8A/arT5Xf5MIT0c1BCzAaVVoVut6EMuQ0AAAAgMqBXAAAAACAyILcBAAAARAbkNgAAAIDIgNwGAAAAEBmQ2wAAAAAiA9Zvg8jg8Xhqamo6OjrMZnN+fn6vs4FAoL6+vqGhwWKxjBgxQq1Wh6VIABiSJEkKtjBqtTovL0+n0/U8qyhKR0fHxYsXBUHIzs42Go3hqhOGA/S3QWSglB44cOCRRx5ZuXJlVVVVz1OMsfr6+l/84hc/+MEP9uzZ4/f7w1UkAAxJlNKLFy8+8cQTDz/88Ntvv93rrM/ne/7551esWLFu3brOzs6wVAjDB3IbRAa1Wj1z5kyNRnP06NG1a9c6HI7uUz6f7+WXX968ebPRaJw6daperw9jnQAw9HAcV1xcnJWVdf78+SeffPLixYvdS58yxkpLS3/3u9+5XK4ZM2YkJiaGt1QY8vjHH3883DUAfD5KaWxsbHJy8oEDByorK6Ojo4uKigRBYIzt2rVr9erVKSkpv/jFL2bNmsXzWCscAPoTpVSn040cOfLMmTMffvih3W6fPXu2RqMhhFy+fPl73/tee3v7ypUrv/Wtb2m12nAXC0Mc+tsgksybN2/lypVut/uNN94oKyuTZbmuru6ZZ56hlN51113z5s0TBAzZBICQyMvL+9GPfpSUlLR169YNGzZ4vV6Hw/Hiiy9WVVWVlJQ8+OCDUVFR4a4Rhj70t0Ek4TguMzOzoqLixIkTHMfl5OT86U9/2rRp08yZMx999NGUlJRwFwgAQ1lKSorT6SwtLW1vb8/NzT19+vQLL7yg1+v/67/+a8KECeGuDoYF5DaIMDqdLjEx8fDhw2fOnKmtrd2+fTvP82vXrh0/fjzHof8YAEJIFMWsrKxTp04dO3asvr7+wIED58+fX7Vq1b333ovOfhgYyG0QYSil8fHxwbHAlZWVDofj3/7t3+6//35RFMNdGgAMfQaDISEh4eDBgxUVFXV1dYsWLXrssceio6PDXRcMF+ifgAgTHCBcUlKSlZXl9XqTk5PvueceLNgGAAOD47iioqIZM2b4/X6tVnvnnXfGxMSEuygYRpDbIMIwxrq6uvbu3XvlyhWdTtfQ0PDmm2/6fL5w1wUAw4KiKMePHz906JBGo/H7/Rs2bLDZbOEuCoYR5DaIMIqiHDhw4OWXX7ZYLPfdd19iYuKrr766f/9+RVHCXRoADH1Xr15du3ZtR0fHV7/61fHjx5eWlq5btw6XjjBgkNsgwtTX1//2t7/t7Oy87777/uM//uOee+5xOBzPPfdcdXV1uEsDgCHO6XT+8Y9/PH78+Ny5cx977LHvf//7sbGx69atO3DgAC4dYWAgt0Ek8Xg8f/jDH8rLy6dNm3bvvfempaWtWLGiuLj48OHDr776ant7e7gLBIAhS1GUbdu2rV+/Pjk5ecWKFbm5uUuXLr399tsbGxufffbZixcvhrtAGBaQ2yCS7Nix480337Rard/97nezsrIIISNGjPjZz35GKd2yZUtpaaksy+GuEQCGpuBqbTabbcWKFbNnz+Z5Pjo6etWqVfn5+UeOHHnjjTecTme4a4ShD+uAQGRQFOXEiROPPvpoTU3NqlWrvvWtbwVXS6KUpqWltbW17d2712azjRkzJj4+nlIa7noBYOhgjDU0NKxdu3b37t2zZ89eu3Zt99YI0dHRZrP57bffrqmpSUtLy8nJwVZ7EFLIbRAZbDbbCy+8UFZWNnny5Keeeqrn5vGCIKSmpl64cOHMmTMajWbs2LFarRbRDQD6i8fj2bx588aNGy0Wy9NPP52Tk9N9ilKakZHR1tZWUVFht9uLi4tjY2PR/kDoYH1niAySJE2aNCkrK2vatGlms7nnKUppVlbWmjVrKioqrFYrYyxcRQLAkCTLcmpq6ve+972srKzr97PS6XSPPPJIcXExIUQQBFmWsXcChA7FlxxEBFmWFUWhlPI8f8NrWcaYoiiKogQfgOtdAOgviqIEx84KgnCz9ocxJsvyZ7RRAP0CuQ0AAAAgMmA+KQAAAEBkQG4DAAAAiAzIbQAAAACRAbkNAAAAIDIgtwEAAABEBuQ2AAAAgMiA3AYAAAAQGZDbAAAAACIDchsAAABAZEBuAwAAAIgMyG0AAAAAkQG5DQAAACAyILcBAAAARAbkNgAAAIDIgNwGAAAAEBmQ2wAAAAAiA3IbAAAAQGRAbgMAAACIDMhtAAAAAJEBuQ3CjDHGGAt3FQAAABFACHcBMNwxxlwuV0dHhyiKMTExgiBQSns9wOl0tre3q1Qqq9WqUqm+0PPLsuzz+SilarWa43ChAgD/wBjz+/2tra2KolgsFp1Od337EwgEbDYbIcRsNl//gL7w+/2SJGk0GjRBcOv4xx9/PNw1wLDGGDt9+vTzzz9/8ODBgoICi8XSq1n0er3vvvvu888/39rampeXp9fr+/jMkiRdvXp1//7927ZtO3nypMPh0Ov1BoPhSzS7ADBUNTY2vvjii5s2bYqOjk5PT+d5vtcDKisrf/WrX506dSojIyM2NvaLNiCSJO3YsWPPnj2jRo1Sq9X9VzgMU+hvgzDjOE4QhLNnz5aXl5eUlIwcObJXs+h0Ojdu3Pj3v/89Ozu7751tkiRVVFT8/ve/P3LkiN/vVxTFaDTedtttP/zhD7OyskLwdwBA5KGUqlSqlpaWDRs2WK3WKVOm9GpkFEXZsWPH+vXrFy5cKIril7jqq62tfeaZZ+rr6++++26j0dh/tcMwhT5bCL+RI0eOGzeOMbZz505FUXqeYow1NTWdOHEiLS1t8uTJBoOhL08Y/Knnnntu586ds2fPfuGFF373u9/l5ua+9tprL774YktLS2j+DgCIPBaLZcaMGWaz+ciRI62trb2G28qyfOjQIZ1ON2nSpOTk5L7nNsaYz+e7cuXKyy+/XFFR4Xa7MZAX+gX62yD8TCbTnDlztm3btm/fvtbW1oSEhJ5n9+3b19DQsHDhwoKCgutvYdyQJEm7d+/eunXr/PnzV69enZmZyRjLyspqb2/fuHHjvHnz5s+f38enAoChTRCE4uLiwsLCQ4cOnTp1KjMzs+fZs2fPHj9+PCkpacqUKX28biSE+Hy+LVu2bNu27dSpU5cvX/Z4PH3/WYDPhv42CD9KaWFhYWZmZlNT065du3pelfr9/p07d2q12mnTpvX9Ytfj8Wzfvl2r1S5dunTkyJE8zwuCkJGRsXDhwtbW1tLSUqfTGbK/BgAiCaU0LS1t4sSJoii+/fbbPbv8FUXZv39/R0fHmDFjioqK+t7ZJsvy2bNnKysreZ5PTk4WRRGdbdBfkNtgUEhOTp4+fbpard63b5/H4+k+Xl1dfeLEiaSkpIkTJ2q12j4+m91uv3TpktVqTUlJEYSPO5W1Wm1WVpbZbK6qqur5KwBgmDMYDNOmTUtMTDxy5EjPcRQOh2PPnj0Gg2HGjBnx8fF9f0KNRrN69eq9e/fu2bPnueeei42NDUHVMEzhPikMChqNZsaMGevWrSsrK7ty5cqoUaMIIYyxDz74oL29fc6cOWPGjAkecTgcbrf7Zhe+giBER0e3tLTYbLa0tDSr1drzVGxsrMlkamlp8fl8jDFMLAUAQgjHcYWFhTk5Ofv27Tt8+PBdd90VPH7+/PmKior4+PhZs2YFj7jdbofD8RnPYzAYtFotx3FRUVFRUVGEELPZzPO8JEkD8IfAcIDcBoPF+PHjR48e/cEHH5w4cSI/P5/jOJfLtXPnToPBMGvWrGACkyTplVde2bdv380iV0ZGxqOPPupwODo7O7OysnrOuqeUiqIoimJXV5fb7R6gvwoAIkFycvKUKVMOHjxYWlq6bNkyjUZDCDl48KDD4ViwYEH3JPTS0tLXXnvN5/Pd8EmMRuODDz44e/bsnpNSe821ArhFyG0wWJhMpmXLlu3du3f//v133nmnwWC4dOnSyZMn4+LiZs+e3R3UHA6HzWa7YW5jjBmNRkmSJEkKBALXPyD4U7Is3/AsAAxbKpVqzpw5r7zyypEjR2pra7Ozs9va2g4fPuzz+ZYtW9Y9SMPj8bS0tHi93uufITiB1Ov1YigbhBRyGwwWlNLFixf/53/+58mTJ6urq4uLi/fu3dvW1vbAAw+MGDEi+BhBEH7605/+67/+6w2XHWeM8TxvMBgaGhoMBgNjrOeVLvuEVqvV6XQD9FcBQISYOHHiuHHjDh06VF5enpWVdeLEiaqqqszMzKlTp3ZfKC5btmzu3Lk3u27kOE6r1YqiOLCFw/CCeQkwiKSmpn7lK19paGgoKysLXuxKknT77bcH71kEiaKo0WjUNxI8znGc1WqNi4vr6uqy2+3dPxgcG+d0Oi0Wi1arxeA2AOhJo9Hcfffdbre7tLS0q6uroqKipaVlyZIliYmJ3Y8RBOGz2x+e59G2QEihvw0GEZ7n58+fv3nz5pMnTyYnJ1+4cCE7O3v8+PHdD1AUZc+ePZWVld2zRHtSFCUuLm7JkiWxsbGpqanV1dWNjY2yLAeXavP5fDU1NR0dHbNnz+4ZBAEAgkpKSmJjYysrK8vKyk6cOCEIwoIFC3o+4MyZM6WlpTe8Exrsy581a1Z+fv4NGyiAfoH3FgwuEyZMyMrKKi8vD272/MADD8TExHSfVRRl9+7dmzdvvtl90oKCggkTJmRmZo4fP/7o0aPHjx+fN2+exWIhhHR0dJSVlcmyPGHChL5vcgoAw0dSUtK8efN27dq1fv36qqqqMWPGBGeydzt9+vRLL710s4WELBZLbGxsTk4OchuEDt5bMLgEp9y//PLL165dEwRh2bJlPc/yPP/tb3970aJFN/vxqKio1NRUlUq1dOnSd95559133y0sLFy8eLEkSZs2bdq9e/e4ceOmTZvW931OAWD4EARh0aJFf//7399+++1AIHDffff12lF09uzZiYmJsizf8MdVKlVubi5CG4QU3l4wuOh0urlz565fv76pqWnJkiX5+fk9z3IcV1RUVFRU9LnPM3bs2B/+8Ie//vWvV69e/dZbb8myfPLkSYvF8v3vfz83N/eG3XUAABMnTszJyTl69Ghubu706dN7jalIT09PT0//Qk+oKApmmEI/4h9//PFw1wDwD5RSo9FoMBgyMjIefPDBvu9J2osoigUFBYWFhXa7/cKFC16vd968eWvWrLnttttEUcTAYQC4IbVabTabLRbLHXfcMXv2bJ1Od4vNRSAQCAQCxcXFc+bM6fumLwA3Q3EdAEOezWYTRdFsNoe7EAAAgFuC3AYAAAAQGTDKBwAAACAyILcBAAAARAbkNgAAAIDIgNwGAAAAEBmQ2wAAAAAiA3IbAAAAQGRAbgMAAACIDMhtAAAAAJHh/wNTmX8UdofYXAAAAABJRU5ErkJggg==;" vertex="1" parent="1">
          <mxGeometry y="30" width="860.69" height="480" as="geometry" />
        </mxCell>
        <mxCell id="AUDEsrTG1l-LsDCRXI6h-17" value="" style="rounded=1;whiteSpace=wrap;html=1;fillColor=none;strokeWidth=3;strokeColor=#FF3333;" vertex="1" parent="1">
          <mxGeometry x="250" y="220" width="90" height="80" as="geometry" />
        </mxCell>
        <mxCell id="AUDEsrTG1l-LsDCRXI6h-3" value="1" style="text;html=1;align=center;verticalAlign=middle;resizable=0;points=[];autosize=1;strokeColor=none;fillColor=none;fontSize=30;" vertex="1" parent="1">
          <mxGeometry x="145" y="210" width="40" height="50" as="geometry" />
        </mxCell>
        <mxCell id="AUDEsrTG1l-LsDCRXI6h-5" value="1" style="text;html=1;align=center;verticalAlign=middle;resizable=0;points=[];autosize=1;strokeColor=none;fillColor=none;fontSize=30;" vertex="1" parent="1">
          <mxGeometry x="200" y="310" width="40" height="50" as="geometry" />
        </mxCell>
        <mxCell id="AUDEsrTG1l-LsDCRXI6h-6" value="1" style="text;html=1;align=center;verticalAlign=middle;resizable=0;points=[];autosize=1;strokeColor=none;fillColor=none;fontSize=30;" vertex="1" parent="1">
          <mxGeometry x="250" y="310" width="40" height="50" as="geometry" />
        </mxCell>
        <mxCell id="AUDEsrTG1l-LsDCRXI6h-7" value="1" style="text;html=1;align=center;verticalAlign=middle;resizable=0;points=[];autosize=1;strokeColor=none;fillColor=none;fontSize=30;" vertex="1" parent="1">
          <mxGeometry x="250" y="260" width="40" height="50" as="geometry" />
        </mxCell>
        <mxCell id="AUDEsrTG1l-LsDCRXI6h-8" value="1" style="text;html=1;align=center;verticalAlign=middle;resizable=0;points=[];autosize=1;strokeColor=none;fillColor=none;fontSize=30;" vertex="1" parent="1">
          <mxGeometry x="252" y="210" width="40" height="50" as="geometry" />
        </mxCell>
        <mxCell id="AUDEsrTG1l-LsDCRXI6h-9" value="1" style="text;html=1;align=center;verticalAlign=middle;resizable=0;points=[];autosize=1;strokeColor=none;fillColor=none;fontSize=30;" vertex="1" parent="1">
          <mxGeometry x="300" y="207" width="40" height="50" as="geometry" />
        </mxCell>
        <mxCell id="AUDEsrTG1l-LsDCRXI6h-10" value="1" style="text;html=1;align=center;verticalAlign=middle;resizable=0;points=[];autosize=1;strokeColor=none;fillColor=none;fontSize=30;" vertex="1" parent="1">
          <mxGeometry x="300" y="260" width="40" height="50" as="geometry" />
        </mxCell>
        <mxCell id="AUDEsrTG1l-LsDCRXI6h-11" value="1" style="text;html=1;align=center;verticalAlign=middle;resizable=0;points=[];autosize=1;strokeColor=none;fillColor=none;fontSize=30;" vertex="1" parent="1">
          <mxGeometry x="550" y="210" width="40" height="50" as="geometry" />
        </mxCell>
        <mxCell id="AUDEsrTG1l-LsDCRXI6h-12" value="1" style="text;html=1;align=center;verticalAlign=middle;resizable=0;points=[];autosize=1;strokeColor=none;fillColor=none;fontSize=30;" vertex="1" parent="1">
          <mxGeometry x="600" y="363" width="40" height="50" as="geometry" />
        </mxCell>
        <mxCell id="AUDEsrTG1l-LsDCRXI6h-13" value="1" style="text;html=1;align=center;verticalAlign=middle;resizable=0;points=[];autosize=1;strokeColor=none;fillColor=none;fontSize=30;" vertex="1" parent="1">
          <mxGeometry x="650" y="360" width="40" height="50" as="geometry" />
        </mxCell>
        <mxCell id="AUDEsrTG1l-LsDCRXI6h-14" value="1" style="text;html=1;align=center;verticalAlign=middle;resizable=0;points=[];autosize=1;strokeColor=none;fillColor=none;fontSize=30;" vertex="1" parent="1">
          <mxGeometry x="600" y="310" width="40" height="50" as="geometry" />
        </mxCell>
        <mxCell id="AUDEsrTG1l-LsDCRXI6h-15" value="1" style="text;html=1;align=center;verticalAlign=middle;resizable=0;points=[];autosize=1;strokeColor=none;fillColor=none;fontSize=30;" vertex="1" parent="1">
          <mxGeometry x="650" y="310" width="40" height="50" as="geometry" />
        </mxCell>
        <mxCell id="AUDEsrTG1l-LsDCRXI6h-18" value="" style="rounded=1;whiteSpace=wrap;html=1;fillColor=none;strokeWidth=3;strokeColor=#FF3333;" vertex="1" parent="1">
          <mxGeometry x="600" y="320" width="90" height="80" as="geometry" />
        </mxCell>
        <mxCell id="AUDEsrTG1l-LsDCRXI6h-19" value="" style="rounded=1;whiteSpace=wrap;html=1;fillColor=none;strokeWidth=3;strokeColor=#97D077;" vertex="1" parent="1">
          <mxGeometry x="145" y="205" width="50" height="60" as="geometry" />
        </mxCell>
        <mxCell id="AUDEsrTG1l-LsDCRXI6h-20" value="" style="rounded=1;whiteSpace=wrap;html=1;fillColor=none;strokeWidth=3;strokeColor=#97D077;" vertex="1" parent="1">
          <mxGeometry x="545" y="202" width="50" height="60" as="geometry" />
        </mxCell>
        <mxCell id="AUDEsrTG1l-LsDCRXI6h-21" value="" style="rounded=1;whiteSpace=wrap;html=1;fillColor=none;strokeWidth=3;strokeColor=#0000FF;" vertex="1" parent="1">
          <mxGeometry x="595" y="310" width="100" height="50" as="geometry" />
        </mxCell>
        <mxCell id="AUDEsrTG1l-LsDCRXI6h-22" value="" style="rounded=1;whiteSpace=wrap;html=1;fillColor=none;strokeWidth=3;strokeColor=#0000FF;" vertex="1" parent="1">
          <mxGeometry x="192" y="300" width="100" height="50" as="geometry" />
        </mxCell>
        <mxCell id="AUDEsrTG1l-LsDCRXI6h-23" value="F = vxy + &#39;vw&#39;y + &#39;w&#39;x&#39;y&#39;z + xyz" style="text;html=1;align=center;verticalAlign=middle;resizable=0;points=[];autosize=1;strokeColor=none;fillColor=none;fontSize=27;" vertex="1" parent="1">
          <mxGeometry x="145" y="530" width="380" height="50" as="geometry" />
        </mxCell>
      </root>
    </mxGraphModel>
  </diagram>
  <diagram id="MVEc0XqGIznLNN_gY9DN" name="Page-2">
    <mxGraphModel dx="520" dy="845" grid="1" gridSize="10" guides="1" tooltips="1" connect="1" arrows="1" fold="1" page="1" pageScale="1" pageWidth="583" pageHeight="413" math="0" shadow="0">
      <root>
        <mxCell id="0" />
        <mxCell id="1" parent="0" />
      </root>
    </mxGraphModel>
  </diagram>
</mxfile>
